<mxfile host="app.diagrams.net" modified="2023-06-10T12:00:43.907Z" agent="Mozilla/5.0 (Windows NT 10.0; Win64; x64) AppleWebKit/537.36 (KHTML, like Gecko) Chrome/114.0.0.0 Safari/537.36" etag="cY17qQ-Ryw6iB74E2Wmv" version="21.3.8" type="github" pages="3">
  <diagram name="状態遷移図" id="ZUQEX0kWT-WYQJzkraKB">
    <mxGraphModel dx="1434" dy="788" grid="1" gridSize="10" guides="1" tooltips="1" connect="1" arrows="1" fold="1" page="1" pageScale="1" pageWidth="827" pageHeight="1169" math="0" shadow="0">
      <root>
        <mxCell id="0" />
        <mxCell id="1" parent="0" />
        <mxCell id="lKAzDZCxByfOrN-u25vt-1" value="" style="shape=table;startSize=0;container=1;collapsible=0;childLayout=tableLayout;" parent="1" vertex="1">
          <mxGeometry x="260" y="310" width="300" height="200" as="geometry" />
        </mxCell>
        <mxCell id="lKAzDZCxByfOrN-u25vt-2" value="" style="shape=tableRow;horizontal=0;startSize=0;swimlaneHead=0;swimlaneBody=0;strokeColor=inherit;top=0;left=0;bottom=0;right=0;collapsible=0;dropTarget=0;fillColor=none;points=[[0,0.5],[1,0.5]];portConstraint=eastwest;" parent="lKAzDZCxByfOrN-u25vt-1" vertex="1">
          <mxGeometry width="300" height="40" as="geometry" />
        </mxCell>
        <mxCell id="lKAzDZCxByfOrN-u25vt-3" value="from / to" style="shape=partialRectangle;html=1;whiteSpace=wrap;connectable=0;strokeColor=inherit;overflow=hidden;fillColor=none;top=0;left=0;bottom=0;right=0;pointerEvents=1;" parent="lKAzDZCxByfOrN-u25vt-2" vertex="1">
          <mxGeometry width="60" height="40" as="geometry">
            <mxRectangle width="60" height="40" as="alternateBounds" />
          </mxGeometry>
        </mxCell>
        <mxCell id="lKAzDZCxByfOrN-u25vt-4" value="未着手" style="shape=partialRectangle;html=1;whiteSpace=wrap;connectable=0;strokeColor=inherit;overflow=hidden;fillColor=none;top=0;left=0;bottom=0;right=0;pointerEvents=1;" parent="lKAzDZCxByfOrN-u25vt-2" vertex="1">
          <mxGeometry x="60" width="60" height="40" as="geometry">
            <mxRectangle width="60" height="40" as="alternateBounds" />
          </mxGeometry>
        </mxCell>
        <mxCell id="lKAzDZCxByfOrN-u25vt-5" value="作業中" style="shape=partialRectangle;html=1;whiteSpace=wrap;connectable=0;strokeColor=inherit;overflow=hidden;fillColor=none;top=0;left=0;bottom=0;right=0;pointerEvents=1;" parent="lKAzDZCxByfOrN-u25vt-2" vertex="1">
          <mxGeometry x="120" width="60" height="40" as="geometry">
            <mxRectangle width="60" height="40" as="alternateBounds" />
          </mxGeometry>
        </mxCell>
        <mxCell id="lKAzDZCxByfOrN-u25vt-6" value="レビュー中" style="shape=partialRectangle;html=1;whiteSpace=wrap;connectable=0;strokeColor=inherit;overflow=hidden;fillColor=none;top=0;left=0;bottom=0;right=0;pointerEvents=1;" parent="lKAzDZCxByfOrN-u25vt-2" vertex="1">
          <mxGeometry x="180" width="60" height="40" as="geometry">
            <mxRectangle width="60" height="40" as="alternateBounds" />
          </mxGeometry>
        </mxCell>
        <mxCell id="lKAzDZCxByfOrN-u25vt-7" value="完了" style="shape=partialRectangle;html=1;whiteSpace=wrap;connectable=0;strokeColor=inherit;overflow=hidden;fillColor=none;top=0;left=0;bottom=0;right=0;pointerEvents=1;" parent="lKAzDZCxByfOrN-u25vt-2" vertex="1">
          <mxGeometry x="240" width="60" height="40" as="geometry">
            <mxRectangle width="60" height="40" as="alternateBounds" />
          </mxGeometry>
        </mxCell>
        <mxCell id="lKAzDZCxByfOrN-u25vt-8" value="" style="shape=tableRow;horizontal=0;startSize=0;swimlaneHead=0;swimlaneBody=0;strokeColor=inherit;top=0;left=0;bottom=0;right=0;collapsible=0;dropTarget=0;fillColor=none;points=[[0,0.5],[1,0.5]];portConstraint=eastwest;" parent="lKAzDZCxByfOrN-u25vt-1" vertex="1">
          <mxGeometry y="40" width="300" height="40" as="geometry" />
        </mxCell>
        <mxCell id="lKAzDZCxByfOrN-u25vt-9" value="未着手" style="shape=partialRectangle;html=1;whiteSpace=wrap;connectable=0;strokeColor=inherit;overflow=hidden;fillColor=none;top=0;left=0;bottom=0;right=0;pointerEvents=1;" parent="lKAzDZCxByfOrN-u25vt-8" vertex="1">
          <mxGeometry width="60" height="40" as="geometry">
            <mxRectangle width="60" height="40" as="alternateBounds" />
          </mxGeometry>
        </mxCell>
        <mxCell id="lKAzDZCxByfOrN-u25vt-10" value="-" style="shape=partialRectangle;html=1;whiteSpace=wrap;connectable=0;strokeColor=inherit;overflow=hidden;fillColor=none;top=0;left=0;bottom=0;right=0;pointerEvents=1;" parent="lKAzDZCxByfOrN-u25vt-8" vertex="1">
          <mxGeometry x="60" width="60" height="40" as="geometry">
            <mxRectangle width="60" height="40" as="alternateBounds" />
          </mxGeometry>
        </mxCell>
        <mxCell id="lKAzDZCxByfOrN-u25vt-11" value="〇" style="shape=partialRectangle;html=1;whiteSpace=wrap;connectable=0;strokeColor=inherit;overflow=hidden;fillColor=none;top=0;left=0;bottom=0;right=0;pointerEvents=1;" parent="lKAzDZCxByfOrN-u25vt-8" vertex="1">
          <mxGeometry x="120" width="60" height="40" as="geometry">
            <mxRectangle width="60" height="40" as="alternateBounds" />
          </mxGeometry>
        </mxCell>
        <mxCell id="lKAzDZCxByfOrN-u25vt-12" value="×" style="shape=partialRectangle;html=1;whiteSpace=wrap;connectable=0;strokeColor=inherit;overflow=hidden;fillColor=none;top=0;left=0;bottom=0;right=0;pointerEvents=1;" parent="lKAzDZCxByfOrN-u25vt-8" vertex="1">
          <mxGeometry x="180" width="60" height="40" as="geometry">
            <mxRectangle width="60" height="40" as="alternateBounds" />
          </mxGeometry>
        </mxCell>
        <mxCell id="lKAzDZCxByfOrN-u25vt-13" value="×" style="shape=partialRectangle;html=1;whiteSpace=wrap;connectable=0;strokeColor=inherit;overflow=hidden;fillColor=none;top=0;left=0;bottom=0;right=0;pointerEvents=1;" parent="lKAzDZCxByfOrN-u25vt-8" vertex="1">
          <mxGeometry x="240" width="60" height="40" as="geometry">
            <mxRectangle width="60" height="40" as="alternateBounds" />
          </mxGeometry>
        </mxCell>
        <mxCell id="lKAzDZCxByfOrN-u25vt-14" value="" style="shape=tableRow;horizontal=0;startSize=0;swimlaneHead=0;swimlaneBody=0;strokeColor=inherit;top=0;left=0;bottom=0;right=0;collapsible=0;dropTarget=0;fillColor=none;points=[[0,0.5],[1,0.5]];portConstraint=eastwest;" parent="lKAzDZCxByfOrN-u25vt-1" vertex="1">
          <mxGeometry y="80" width="300" height="40" as="geometry" />
        </mxCell>
        <mxCell id="lKAzDZCxByfOrN-u25vt-15" value="作業中" style="shape=partialRectangle;html=1;whiteSpace=wrap;connectable=0;strokeColor=inherit;overflow=hidden;fillColor=none;top=0;left=0;bottom=0;right=0;pointerEvents=1;" parent="lKAzDZCxByfOrN-u25vt-14" vertex="1">
          <mxGeometry width="60" height="40" as="geometry">
            <mxRectangle width="60" height="40" as="alternateBounds" />
          </mxGeometry>
        </mxCell>
        <mxCell id="lKAzDZCxByfOrN-u25vt-16" value="〇" style="shape=partialRectangle;html=1;whiteSpace=wrap;connectable=0;strokeColor=inherit;overflow=hidden;fillColor=none;top=0;left=0;bottom=0;right=0;pointerEvents=1;" parent="lKAzDZCxByfOrN-u25vt-14" vertex="1">
          <mxGeometry x="60" width="60" height="40" as="geometry">
            <mxRectangle width="60" height="40" as="alternateBounds" />
          </mxGeometry>
        </mxCell>
        <mxCell id="lKAzDZCxByfOrN-u25vt-17" value="-" style="shape=partialRectangle;html=1;whiteSpace=wrap;connectable=0;strokeColor=inherit;overflow=hidden;fillColor=none;top=0;left=0;bottom=0;right=0;pointerEvents=1;" parent="lKAzDZCxByfOrN-u25vt-14" vertex="1">
          <mxGeometry x="120" width="60" height="40" as="geometry">
            <mxRectangle width="60" height="40" as="alternateBounds" />
          </mxGeometry>
        </mxCell>
        <mxCell id="lKAzDZCxByfOrN-u25vt-18" value="〇" style="shape=partialRectangle;html=1;whiteSpace=wrap;connectable=0;strokeColor=inherit;overflow=hidden;fillColor=none;top=0;left=0;bottom=0;right=0;pointerEvents=1;" parent="lKAzDZCxByfOrN-u25vt-14" vertex="1">
          <mxGeometry x="180" width="60" height="40" as="geometry">
            <mxRectangle width="60" height="40" as="alternateBounds" />
          </mxGeometry>
        </mxCell>
        <mxCell id="lKAzDZCxByfOrN-u25vt-19" value="〇" style="shape=partialRectangle;html=1;whiteSpace=wrap;connectable=0;strokeColor=inherit;overflow=hidden;fillColor=none;top=0;left=0;bottom=0;right=0;pointerEvents=1;" parent="lKAzDZCxByfOrN-u25vt-14" vertex="1">
          <mxGeometry x="240" width="60" height="40" as="geometry">
            <mxRectangle width="60" height="40" as="alternateBounds" />
          </mxGeometry>
        </mxCell>
        <mxCell id="lKAzDZCxByfOrN-u25vt-20" value="" style="shape=tableRow;horizontal=0;startSize=0;swimlaneHead=0;swimlaneBody=0;strokeColor=inherit;top=0;left=0;bottom=0;right=0;collapsible=0;dropTarget=0;fillColor=none;points=[[0,0.5],[1,0.5]];portConstraint=eastwest;" parent="lKAzDZCxByfOrN-u25vt-1" vertex="1">
          <mxGeometry y="120" width="300" height="40" as="geometry" />
        </mxCell>
        <mxCell id="lKAzDZCxByfOrN-u25vt-21" value="レビュー中" style="shape=partialRectangle;html=1;whiteSpace=wrap;connectable=0;strokeColor=inherit;overflow=hidden;fillColor=none;top=0;left=0;bottom=0;right=0;pointerEvents=1;" parent="lKAzDZCxByfOrN-u25vt-20" vertex="1">
          <mxGeometry width="60" height="40" as="geometry">
            <mxRectangle width="60" height="40" as="alternateBounds" />
          </mxGeometry>
        </mxCell>
        <mxCell id="lKAzDZCxByfOrN-u25vt-22" value="×" style="shape=partialRectangle;html=1;whiteSpace=wrap;connectable=0;strokeColor=inherit;overflow=hidden;fillColor=none;top=0;left=0;bottom=0;right=0;pointerEvents=1;" parent="lKAzDZCxByfOrN-u25vt-20" vertex="1">
          <mxGeometry x="60" width="60" height="40" as="geometry">
            <mxRectangle width="60" height="40" as="alternateBounds" />
          </mxGeometry>
        </mxCell>
        <mxCell id="lKAzDZCxByfOrN-u25vt-23" value="〇" style="shape=partialRectangle;html=1;whiteSpace=wrap;connectable=0;strokeColor=inherit;overflow=hidden;fillColor=none;top=0;left=0;bottom=0;right=0;pointerEvents=1;" parent="lKAzDZCxByfOrN-u25vt-20" vertex="1">
          <mxGeometry x="120" width="60" height="40" as="geometry">
            <mxRectangle width="60" height="40" as="alternateBounds" />
          </mxGeometry>
        </mxCell>
        <mxCell id="lKAzDZCxByfOrN-u25vt-24" value="-" style="shape=partialRectangle;html=1;whiteSpace=wrap;connectable=0;strokeColor=inherit;overflow=hidden;fillColor=none;top=0;left=0;bottom=0;right=0;pointerEvents=1;" parent="lKAzDZCxByfOrN-u25vt-20" vertex="1">
          <mxGeometry x="180" width="60" height="40" as="geometry">
            <mxRectangle width="60" height="40" as="alternateBounds" />
          </mxGeometry>
        </mxCell>
        <mxCell id="lKAzDZCxByfOrN-u25vt-25" value="〇" style="shape=partialRectangle;html=1;whiteSpace=wrap;connectable=0;strokeColor=inherit;overflow=hidden;fillColor=none;top=0;left=0;bottom=0;right=0;pointerEvents=1;" parent="lKAzDZCxByfOrN-u25vt-20" vertex="1">
          <mxGeometry x="240" width="60" height="40" as="geometry">
            <mxRectangle width="60" height="40" as="alternateBounds" />
          </mxGeometry>
        </mxCell>
        <mxCell id="lKAzDZCxByfOrN-u25vt-26" value="" style="shape=tableRow;horizontal=0;startSize=0;swimlaneHead=0;swimlaneBody=0;strokeColor=inherit;top=0;left=0;bottom=0;right=0;collapsible=0;dropTarget=0;fillColor=none;points=[[0,0.5],[1,0.5]];portConstraint=eastwest;" parent="lKAzDZCxByfOrN-u25vt-1" vertex="1">
          <mxGeometry y="160" width="300" height="40" as="geometry" />
        </mxCell>
        <mxCell id="lKAzDZCxByfOrN-u25vt-27" value="完了" style="shape=partialRectangle;html=1;whiteSpace=wrap;connectable=0;strokeColor=inherit;overflow=hidden;fillColor=none;top=0;left=0;bottom=0;right=0;pointerEvents=1;" parent="lKAzDZCxByfOrN-u25vt-26" vertex="1">
          <mxGeometry width="60" height="40" as="geometry">
            <mxRectangle width="60" height="40" as="alternateBounds" />
          </mxGeometry>
        </mxCell>
        <mxCell id="lKAzDZCxByfOrN-u25vt-28" value="×" style="shape=partialRectangle;html=1;whiteSpace=wrap;connectable=0;strokeColor=inherit;overflow=hidden;fillColor=none;top=0;left=0;bottom=0;right=0;pointerEvents=1;" parent="lKAzDZCxByfOrN-u25vt-26" vertex="1">
          <mxGeometry x="60" width="60" height="40" as="geometry">
            <mxRectangle width="60" height="40" as="alternateBounds" />
          </mxGeometry>
        </mxCell>
        <mxCell id="lKAzDZCxByfOrN-u25vt-29" value="×" style="shape=partialRectangle;html=1;whiteSpace=wrap;connectable=0;strokeColor=inherit;overflow=hidden;fillColor=none;top=0;left=0;bottom=0;right=0;pointerEvents=1;" parent="lKAzDZCxByfOrN-u25vt-26" vertex="1">
          <mxGeometry x="120" width="60" height="40" as="geometry">
            <mxRectangle width="60" height="40" as="alternateBounds" />
          </mxGeometry>
        </mxCell>
        <mxCell id="lKAzDZCxByfOrN-u25vt-30" value="×" style="shape=partialRectangle;html=1;whiteSpace=wrap;connectable=0;strokeColor=inherit;overflow=hidden;fillColor=none;top=0;left=0;bottom=0;right=0;pointerEvents=1;" parent="lKAzDZCxByfOrN-u25vt-26" vertex="1">
          <mxGeometry x="180" width="60" height="40" as="geometry">
            <mxRectangle width="60" height="40" as="alternateBounds" />
          </mxGeometry>
        </mxCell>
        <mxCell id="lKAzDZCxByfOrN-u25vt-31" value="-" style="shape=partialRectangle;html=1;whiteSpace=wrap;connectable=0;strokeColor=inherit;overflow=hidden;fillColor=none;top=0;left=0;bottom=0;right=0;pointerEvents=1;" parent="lKAzDZCxByfOrN-u25vt-26" vertex="1">
          <mxGeometry x="240" width="60" height="40" as="geometry">
            <mxRectangle width="60" height="40" as="alternateBounds" />
          </mxGeometry>
        </mxCell>
      </root>
    </mxGraphModel>
  </diagram>
  <diagram id="1sNySAG6Ov_SNn1Su_-6" name="アクティビティ図">
    <mxGraphModel dx="1434" dy="788" grid="1" gridSize="10" guides="1" tooltips="1" connect="1" arrows="1" fold="1" page="1" pageScale="1" pageWidth="827" pageHeight="1169" math="0" shadow="0">
      <root>
        <mxCell id="0" />
        <mxCell id="1" parent="0" />
        <mxCell id="l-wsGwp3f41n8e-7Gfb_-7" value="" style="rounded=0;whiteSpace=wrap;html=1;fillColor=#fff2cc;strokeColor=#d6b656;" vertex="1" parent="1">
          <mxGeometry x="20" y="50" width="170" height="60" as="geometry" />
        </mxCell>
        <mxCell id="l-wsGwp3f41n8e-7Gfb_-8" value="" style="rounded=0;whiteSpace=wrap;html=1;fillColor=#fff2cc;strokeColor=#d6b656;" vertex="1" parent="1">
          <mxGeometry x="190" y="50" width="170" height="60" as="geometry" />
        </mxCell>
        <mxCell id="l-wsGwp3f41n8e-7Gfb_-9" value="" style="rounded=0;whiteSpace=wrap;html=1;fillColor=#fff2cc;strokeColor=#d6b656;" vertex="1" parent="1">
          <mxGeometry x="360" y="50" width="170" height="60" as="geometry" />
        </mxCell>
        <mxCell id="l-wsGwp3f41n8e-7Gfb_-10" value="" style="rounded=0;whiteSpace=wrap;html=1;fillColor=#fff2cc;strokeColor=#d6b656;" vertex="1" parent="1">
          <mxGeometry x="530" y="50" width="170" height="60" as="geometry" />
        </mxCell>
        <mxCell id="l-wsGwp3f41n8e-7Gfb_-1" value="■①プロジェクトを登録、②マイルストーンを登録、③タスクを登録、④タスクを確認" style="text;html=1;strokeColor=none;fillColor=none;align=left;verticalAlign=middle;whiteSpace=wrap;rounded=0;fontSize=16;" vertex="1" parent="1">
          <mxGeometry x="20" y="10" width="630" height="30" as="geometry" />
        </mxCell>
        <mxCell id="l-wsGwp3f41n8e-7Gfb_-2" value="PG" style="text;html=1;strokeColor=none;fillColor=none;align=center;verticalAlign=middle;whiteSpace=wrap;rounded=0;fontSize=17;" vertex="1" parent="1">
          <mxGeometry x="75" y="65" width="60" height="30" as="geometry" />
        </mxCell>
        <mxCell id="l-wsGwp3f41n8e-7Gfb_-3" value="SE" style="text;html=1;strokeColor=none;fillColor=none;align=center;verticalAlign=middle;whiteSpace=wrap;rounded=0;fontSize=17;" vertex="1" parent="1">
          <mxGeometry x="245" y="65" width="60" height="30" as="geometry" />
        </mxCell>
        <mxCell id="l-wsGwp3f41n8e-7Gfb_-4" value="タスク管理&lt;br style=&quot;font-size: 17px;&quot;&gt;システム" style="text;html=1;strokeColor=none;fillColor=none;align=center;verticalAlign=middle;whiteSpace=wrap;rounded=0;fontSize=17;" vertex="1" parent="1">
          <mxGeometry x="365" y="65" width="160" height="30" as="geometry" />
        </mxCell>
        <mxCell id="l-wsGwp3f41n8e-7Gfb_-5" value="ドキュメント管理（Googleドライブ）" style="text;html=1;strokeColor=none;fillColor=none;align=center;verticalAlign=middle;whiteSpace=wrap;rounded=0;fontSize=17;" vertex="1" parent="1">
          <mxGeometry x="535" y="55" width="160" height="50" as="geometry" />
        </mxCell>
        <mxCell id="l-wsGwp3f41n8e-7Gfb_-11" value="" style="rounded=0;whiteSpace=wrap;html=1;fillColor=#FFFFFF;strokeColor=#d6b656;" vertex="1" parent="1">
          <mxGeometry x="20" y="110" width="170" height="730" as="geometry" />
        </mxCell>
        <mxCell id="l-wsGwp3f41n8e-7Gfb_-12" value="" style="rounded=0;whiteSpace=wrap;html=1;fillColor=#FFFFFF;strokeColor=#d6b656;" vertex="1" parent="1">
          <mxGeometry x="190" y="110" width="170" height="730" as="geometry" />
        </mxCell>
        <mxCell id="l-wsGwp3f41n8e-7Gfb_-13" value="" style="rounded=0;whiteSpace=wrap;html=1;fillColor=#FFFFFF;strokeColor=#d6b656;" vertex="1" parent="1">
          <mxGeometry x="360" y="110" width="170" height="730" as="geometry" />
        </mxCell>
        <mxCell id="l-wsGwp3f41n8e-7Gfb_-14" value="" style="rounded=0;whiteSpace=wrap;html=1;fillColor=#FFFFFF;strokeColor=#d6b656;" vertex="1" parent="1">
          <mxGeometry x="530" y="110" width="170" height="730" as="geometry" />
        </mxCell>
        <mxCell id="l-wsGwp3f41n8e-7Gfb_-15" value="" style="ellipse;fillColor=strokeColor;html=1;" vertex="1" parent="1">
          <mxGeometry x="260" y="120" width="30" height="30" as="geometry" />
        </mxCell>
        <mxCell id="l-wsGwp3f41n8e-7Gfb_-16" value="プロジェクト情報&lt;br&gt;を入力" style="rounded=1;whiteSpace=wrap;html=1;fillColor=#dae8fc;strokeColor=#6c8ebf;" vertex="1" parent="1">
          <mxGeometry x="215" y="170" width="120" height="60" as="geometry" />
        </mxCell>
        <mxCell id="l-wsGwp3f41n8e-7Gfb_-17" value="プロジェクトを登録" style="rounded=1;whiteSpace=wrap;html=1;fillColor=#dae8fc;strokeColor=#6c8ebf;" vertex="1" parent="1">
          <mxGeometry x="385" y="170" width="120" height="60" as="geometry" />
        </mxCell>
        <mxCell id="l-wsGwp3f41n8e-7Gfb_-18" value="" style="endArrow=classic;html=1;rounded=0;exitX=0.5;exitY=1;exitDx=0;exitDy=0;entryX=0.5;entryY=0;entryDx=0;entryDy=0;" edge="1" parent="1" source="l-wsGwp3f41n8e-7Gfb_-15" target="l-wsGwp3f41n8e-7Gfb_-16">
          <mxGeometry width="50" height="50" relative="1" as="geometry">
            <mxPoint x="390" y="390" as="sourcePoint" />
            <mxPoint x="440" y="340" as="targetPoint" />
          </mxGeometry>
        </mxCell>
        <mxCell id="l-wsGwp3f41n8e-7Gfb_-19" value="" style="endArrow=classic;html=1;rounded=0;entryX=0;entryY=0.5;entryDx=0;entryDy=0;exitX=1;exitY=0.5;exitDx=0;exitDy=0;" edge="1" parent="1" source="l-wsGwp3f41n8e-7Gfb_-16" target="l-wsGwp3f41n8e-7Gfb_-17">
          <mxGeometry width="50" height="50" relative="1" as="geometry">
            <mxPoint x="330" y="280" as="sourcePoint" />
            <mxPoint x="380" y="230" as="targetPoint" />
          </mxGeometry>
        </mxCell>
        <mxCell id="l-wsGwp3f41n8e-7Gfb_-20" value="マイルストーン&lt;br&gt;を入力&lt;br&gt;⇒一括入力" style="rounded=1;whiteSpace=wrap;html=1;fillColor=#dae8fc;strokeColor=#6c8ebf;" vertex="1" parent="1">
          <mxGeometry x="215" y="260" width="120" height="60" as="geometry" />
        </mxCell>
        <mxCell id="l-wsGwp3f41n8e-7Gfb_-21" value="マイルストーンを&lt;br&gt;一括登録" style="rounded=1;whiteSpace=wrap;html=1;fillColor=#dae8fc;strokeColor=#6c8ebf;" vertex="1" parent="1">
          <mxGeometry x="385" y="260" width="120" height="60" as="geometry" />
        </mxCell>
        <mxCell id="l-wsGwp3f41n8e-7Gfb_-22" value="" style="endArrow=classic;html=1;rounded=0;entryX=0;entryY=0.5;entryDx=0;entryDy=0;exitX=1;exitY=0.5;exitDx=0;exitDy=0;" edge="1" parent="1" source="l-wsGwp3f41n8e-7Gfb_-20" target="l-wsGwp3f41n8e-7Gfb_-21">
          <mxGeometry width="50" height="50" relative="1" as="geometry">
            <mxPoint x="345" y="220" as="sourcePoint" />
            <mxPoint x="395" y="220" as="targetPoint" />
          </mxGeometry>
        </mxCell>
        <mxCell id="l-wsGwp3f41n8e-7Gfb_-24" value="" style="edgeStyle=elbowEdgeStyle;elbow=vertical;endArrow=classic;html=1;curved=0;rounded=0;endSize=8;startSize=8;exitX=0.5;exitY=1;exitDx=0;exitDy=0;entryX=0.5;entryY=0;entryDx=0;entryDy=0;" edge="1" parent="1" source="l-wsGwp3f41n8e-7Gfb_-17" target="l-wsGwp3f41n8e-7Gfb_-20">
          <mxGeometry width="50" height="50" relative="1" as="geometry">
            <mxPoint x="160" y="270" as="sourcePoint" />
            <mxPoint x="210" y="220" as="targetPoint" />
            <Array as="points">
              <mxPoint x="350" y="240" />
              <mxPoint x="370" y="230" />
            </Array>
          </mxGeometry>
        </mxCell>
        <mxCell id="l-wsGwp3f41n8e-7Gfb_-25" value="タスク情報を入力（閲覧URLも入力）" style="rounded=1;whiteSpace=wrap;html=1;fillColor=#dae8fc;strokeColor=#6c8ebf;" vertex="1" parent="1">
          <mxGeometry x="215" y="440" width="120" height="60" as="geometry" />
        </mxCell>
        <mxCell id="l-wsGwp3f41n8e-7Gfb_-26" value="設計書をドライブにアップロード" style="rounded=1;whiteSpace=wrap;html=1;fillColor=#dae8fc;strokeColor=#6c8ebf;" vertex="1" parent="1">
          <mxGeometry x="215" y="350" width="120" height="60" as="geometry" />
        </mxCell>
        <mxCell id="l-wsGwp3f41n8e-7Gfb_-27" value="設計ドキュメントを保存して、閲覧URL発行" style="rounded=1;whiteSpace=wrap;html=1;fillColor=#dae8fc;strokeColor=#6c8ebf;" vertex="1" parent="1">
          <mxGeometry x="555" y="350" width="120" height="60" as="geometry" />
        </mxCell>
        <mxCell id="l-wsGwp3f41n8e-7Gfb_-28" value="" style="endArrow=classic;html=1;rounded=0;entryX=0.5;entryY=0;entryDx=0;entryDy=0;" edge="1" parent="1" target="l-wsGwp3f41n8e-7Gfb_-26">
          <mxGeometry width="50" height="50" relative="1" as="geometry">
            <mxPoint x="275" y="320" as="sourcePoint" />
            <mxPoint x="274.83" y="340" as="targetPoint" />
          </mxGeometry>
        </mxCell>
        <mxCell id="l-wsGwp3f41n8e-7Gfb_-29" value="" style="endArrow=classic;html=1;rounded=0;entryX=0;entryY=0.5;entryDx=0;entryDy=0;exitX=1;exitY=0.5;exitDx=0;exitDy=0;" edge="1" parent="1" source="l-wsGwp3f41n8e-7Gfb_-26" target="l-wsGwp3f41n8e-7Gfb_-27">
          <mxGeometry width="50" height="50" relative="1" as="geometry">
            <mxPoint x="285" y="330" as="sourcePoint" />
            <mxPoint x="285" y="360" as="targetPoint" />
          </mxGeometry>
        </mxCell>
        <mxCell id="l-wsGwp3f41n8e-7Gfb_-30" value="" style="edgeStyle=elbowEdgeStyle;elbow=vertical;endArrow=classic;html=1;curved=0;rounded=0;endSize=8;startSize=8;exitX=0.5;exitY=1;exitDx=0;exitDy=0;" edge="1" parent="1" source="l-wsGwp3f41n8e-7Gfb_-27" target="l-wsGwp3f41n8e-7Gfb_-25">
          <mxGeometry width="50" height="50" relative="1" as="geometry">
            <mxPoint x="520" y="420" as="sourcePoint" />
            <mxPoint x="350" y="450" as="targetPoint" />
            <Array as="points">
              <mxPoint x="445" y="420" />
            </Array>
          </mxGeometry>
        </mxCell>
        <mxCell id="l-wsGwp3f41n8e-7Gfb_-31" value="タスクを登録" style="rounded=1;whiteSpace=wrap;html=1;fillColor=#dae8fc;strokeColor=#6c8ebf;" vertex="1" parent="1">
          <mxGeometry x="385" y="530" width="120" height="60" as="geometry" />
        </mxCell>
        <mxCell id="l-wsGwp3f41n8e-7Gfb_-32" value="マイルストーンとタスクを紐づける" style="rounded=1;whiteSpace=wrap;html=1;fillColor=#dae8fc;strokeColor=#6c8ebf;" vertex="1" parent="1">
          <mxGeometry x="215" y="530" width="120" height="60" as="geometry" />
        </mxCell>
        <mxCell id="l-wsGwp3f41n8e-7Gfb_-33" value="" style="endArrow=classic;html=1;rounded=0;entryX=0.5;entryY=0;entryDx=0;entryDy=0;" edge="1" parent="1" source="l-wsGwp3f41n8e-7Gfb_-25">
          <mxGeometry width="50" height="50" relative="1" as="geometry">
            <mxPoint x="274.76" y="500" as="sourcePoint" />
            <mxPoint x="274.76" y="530" as="targetPoint" />
            <Array as="points">
              <mxPoint x="275" y="530" />
            </Array>
          </mxGeometry>
        </mxCell>
        <mxCell id="l-wsGwp3f41n8e-7Gfb_-34" value="" style="endArrow=classic;html=1;rounded=0;exitX=1;exitY=0.5;exitDx=0;exitDy=0;" edge="1" parent="1" source="l-wsGwp3f41n8e-7Gfb_-32" target="l-wsGwp3f41n8e-7Gfb_-31">
          <mxGeometry width="50" height="50" relative="1" as="geometry">
            <mxPoint x="335" y="559.71" as="sourcePoint" />
            <mxPoint x="385" y="559.71" as="targetPoint" />
          </mxGeometry>
        </mxCell>
        <mxCell id="l-wsGwp3f41n8e-7Gfb_-35" value="タスク割り当ての通知を受け取る" style="rounded=1;whiteSpace=wrap;html=1;fillColor=#dae8fc;strokeColor=#6c8ebf;" vertex="1" parent="1">
          <mxGeometry x="45" y="620" width="120" height="60" as="geometry" />
        </mxCell>
        <mxCell id="l-wsGwp3f41n8e-7Gfb_-36" value="PGにSlack通知する" style="rounded=1;whiteSpace=wrap;html=1;fillColor=#dae8fc;strokeColor=#6c8ebf;" vertex="1" parent="1">
          <mxGeometry x="385" y="620" width="120" height="60" as="geometry" />
        </mxCell>
        <mxCell id="l-wsGwp3f41n8e-7Gfb_-37" value="タスク詳細のリンクをクリック" style="rounded=1;whiteSpace=wrap;html=1;fillColor=#dae8fc;strokeColor=#6c8ebf;" vertex="1" parent="1">
          <mxGeometry x="45" y="700" width="120" height="60" as="geometry" />
        </mxCell>
        <mxCell id="l-wsGwp3f41n8e-7Gfb_-38" value="タスクを表示" style="rounded=1;whiteSpace=wrap;html=1;fillColor=#dae8fc;strokeColor=#6c8ebf;" vertex="1" parent="1">
          <mxGeometry x="385" y="700" width="120" height="60" as="geometry" />
        </mxCell>
        <mxCell id="l-wsGwp3f41n8e-7Gfb_-39" value="" style="endArrow=classic;html=1;rounded=0;exitX=0.5;exitY=1;exitDx=0;exitDy=0;" edge="1" parent="1" source="l-wsGwp3f41n8e-7Gfb_-31" target="l-wsGwp3f41n8e-7Gfb_-36">
          <mxGeometry width="50" height="50" relative="1" as="geometry">
            <mxPoint x="444.8" y="590" as="sourcePoint" />
            <mxPoint x="444.8" y="610" as="targetPoint" />
          </mxGeometry>
        </mxCell>
        <mxCell id="l-wsGwp3f41n8e-7Gfb_-40" value="" style="endArrow=classic;html=1;rounded=0;exitX=0.5;exitY=1;exitDx=0;exitDy=0;entryX=0.5;entryY=0;entryDx=0;entryDy=0;" edge="1" parent="1" source="l-wsGwp3f41n8e-7Gfb_-35" target="l-wsGwp3f41n8e-7Gfb_-37">
          <mxGeometry width="50" height="50" relative="1" as="geometry">
            <mxPoint x="100" y="680" as="sourcePoint" />
            <mxPoint x="100" y="710" as="targetPoint" />
          </mxGeometry>
        </mxCell>
        <mxCell id="l-wsGwp3f41n8e-7Gfb_-41" value="" style="endArrow=classic;html=1;rounded=0;entryX=0;entryY=0.5;entryDx=0;entryDy=0;" edge="1" parent="1" source="l-wsGwp3f41n8e-7Gfb_-37" target="l-wsGwp3f41n8e-7Gfb_-38">
          <mxGeometry width="50" height="50" relative="1" as="geometry">
            <mxPoint x="190" y="729.76" as="sourcePoint" />
            <mxPoint x="240" y="729.76" as="targetPoint" />
          </mxGeometry>
        </mxCell>
        <mxCell id="l-wsGwp3f41n8e-7Gfb_-43" value="" style="endArrow=classic;html=1;rounded=0;entryX=1;entryY=0.5;entryDx=0;entryDy=0;exitX=0;exitY=0.5;exitDx=0;exitDy=0;" edge="1" parent="1" source="l-wsGwp3f41n8e-7Gfb_-36" target="l-wsGwp3f41n8e-7Gfb_-35">
          <mxGeometry width="50" height="50" relative="1" as="geometry">
            <mxPoint x="175" y="740" as="sourcePoint" />
            <mxPoint x="395" y="740" as="targetPoint" />
          </mxGeometry>
        </mxCell>
        <mxCell id="l-wsGwp3f41n8e-7Gfb_-44" value="" style="ellipse;html=1;shape=endState;fillColor=strokeColor;" vertex="1" parent="1">
          <mxGeometry x="430" y="790" width="30" height="30" as="geometry" />
        </mxCell>
        <mxCell id="l-wsGwp3f41n8e-7Gfb_-45" value="" style="endArrow=classic;html=1;rounded=0;entryX=0.5;entryY=0;entryDx=0;entryDy=0;" edge="1" parent="1" target="l-wsGwp3f41n8e-7Gfb_-44">
          <mxGeometry width="50" height="50" relative="1" as="geometry">
            <mxPoint x="445" y="760" as="sourcePoint" />
            <mxPoint x="430" y="870" as="targetPoint" />
          </mxGeometry>
        </mxCell>
        <mxCell id="l-wsGwp3f41n8e-7Gfb_-46" value="" style="rounded=0;whiteSpace=wrap;html=1;fillColor=#fff2cc;strokeColor=#d6b656;" vertex="1" parent="1">
          <mxGeometry x="850" y="50" width="170" height="60" as="geometry" />
        </mxCell>
        <mxCell id="l-wsGwp3f41n8e-7Gfb_-47" value="" style="rounded=0;whiteSpace=wrap;html=1;fillColor=#fff2cc;strokeColor=#d6b656;" vertex="1" parent="1">
          <mxGeometry x="1020" y="50" width="170" height="60" as="geometry" />
        </mxCell>
        <mxCell id="l-wsGwp3f41n8e-7Gfb_-48" value="" style="rounded=0;whiteSpace=wrap;html=1;fillColor=#fff2cc;strokeColor=#d6b656;" vertex="1" parent="1">
          <mxGeometry x="1190" y="50" width="170" height="60" as="geometry" />
        </mxCell>
        <mxCell id="l-wsGwp3f41n8e-7Gfb_-49" value="" style="rounded=0;whiteSpace=wrap;html=1;fillColor=#fff2cc;strokeColor=#d6b656;" vertex="1" parent="1">
          <mxGeometry x="1360" y="50" width="170" height="60" as="geometry" />
        </mxCell>
        <mxCell id="l-wsGwp3f41n8e-7Gfb_-50" value="■⑤ステータス変更、⑥進捗管理" style="text;html=1;strokeColor=none;fillColor=none;align=left;verticalAlign=middle;whiteSpace=wrap;rounded=0;fontSize=16;" vertex="1" parent="1">
          <mxGeometry x="850" y="10" width="630" height="30" as="geometry" />
        </mxCell>
        <mxCell id="l-wsGwp3f41n8e-7Gfb_-51" value="PG" style="text;html=1;strokeColor=none;fillColor=none;align=center;verticalAlign=middle;whiteSpace=wrap;rounded=0;fontSize=17;" vertex="1" parent="1">
          <mxGeometry x="905" y="65" width="60" height="30" as="geometry" />
        </mxCell>
        <mxCell id="l-wsGwp3f41n8e-7Gfb_-52" value="SE" style="text;html=1;strokeColor=none;fillColor=none;align=center;verticalAlign=middle;whiteSpace=wrap;rounded=0;fontSize=17;" vertex="1" parent="1">
          <mxGeometry x="1075" y="65" width="60" height="30" as="geometry" />
        </mxCell>
        <mxCell id="l-wsGwp3f41n8e-7Gfb_-53" value="タスク管理&lt;br style=&quot;font-size: 17px;&quot;&gt;システム" style="text;html=1;strokeColor=none;fillColor=none;align=center;verticalAlign=middle;whiteSpace=wrap;rounded=0;fontSize=17;" vertex="1" parent="1">
          <mxGeometry x="1195" y="65" width="160" height="30" as="geometry" />
        </mxCell>
        <mxCell id="l-wsGwp3f41n8e-7Gfb_-54" value="GitHub" style="text;html=1;strokeColor=none;fillColor=none;align=center;verticalAlign=middle;whiteSpace=wrap;rounded=0;fontSize=17;" vertex="1" parent="1">
          <mxGeometry x="1365" y="55" width="160" height="50" as="geometry" />
        </mxCell>
        <mxCell id="l-wsGwp3f41n8e-7Gfb_-55" value="" style="rounded=0;whiteSpace=wrap;html=1;fillColor=#FFFFFF;strokeColor=#d6b656;" vertex="1" parent="1">
          <mxGeometry x="850" y="110" width="170" height="1050" as="geometry" />
        </mxCell>
        <mxCell id="l-wsGwp3f41n8e-7Gfb_-56" value="" style="rounded=0;whiteSpace=wrap;html=1;fillColor=#FFFFFF;strokeColor=#d6b656;" vertex="1" parent="1">
          <mxGeometry x="1020" y="110" width="170" height="1050" as="geometry" />
        </mxCell>
        <mxCell id="l-wsGwp3f41n8e-7Gfb_-57" value="" style="rounded=0;whiteSpace=wrap;html=1;fillColor=#FFFFFF;strokeColor=#d6b656;" vertex="1" parent="1">
          <mxGeometry x="1190" y="110" width="170" height="1050" as="geometry" />
        </mxCell>
        <mxCell id="l-wsGwp3f41n8e-7Gfb_-58" value="" style="rounded=0;whiteSpace=wrap;html=1;fillColor=#FFFFFF;strokeColor=#d6b656;" vertex="1" parent="1">
          <mxGeometry x="1360" y="110" width="170" height="1050" as="geometry" />
        </mxCell>
        <mxCell id="l-wsGwp3f41n8e-7Gfb_-59" value="" style="ellipse;fillColor=strokeColor;html=1;" vertex="1" parent="1">
          <mxGeometry x="915" y="120" width="30" height="30" as="geometry" />
        </mxCell>
        <mxCell id="l-wsGwp3f41n8e-7Gfb_-60" value="作業を開始" style="rounded=1;whiteSpace=wrap;html=1;fillColor=#dae8fc;strokeColor=#6c8ebf;" vertex="1" parent="1">
          <mxGeometry x="870" y="170" width="120" height="60" as="geometry" />
        </mxCell>
        <mxCell id="l-wsGwp3f41n8e-7Gfb_-61" value="ステータス変更&lt;br&gt;未着手⇒作業中" style="rounded=1;whiteSpace=wrap;html=1;fillColor=#dae8fc;strokeColor=#6c8ebf;" vertex="1" parent="1">
          <mxGeometry x="1215" y="170" width="120" height="60" as="geometry" />
        </mxCell>
        <mxCell id="l-wsGwp3f41n8e-7Gfb_-62" value="" style="endArrow=classic;html=1;rounded=0;exitX=0.5;exitY=1;exitDx=0;exitDy=0;entryX=0.5;entryY=0;entryDx=0;entryDy=0;" edge="1" parent="1" source="l-wsGwp3f41n8e-7Gfb_-59" target="l-wsGwp3f41n8e-7Gfb_-60">
          <mxGeometry width="50" height="50" relative="1" as="geometry">
            <mxPoint x="1220" y="390" as="sourcePoint" />
            <mxPoint x="1270" y="340" as="targetPoint" />
          </mxGeometry>
        </mxCell>
        <mxCell id="l-wsGwp3f41n8e-7Gfb_-63" value="" style="endArrow=classic;html=1;rounded=0;entryX=0;entryY=0.5;entryDx=0;entryDy=0;exitX=1;exitY=0.5;exitDx=0;exitDy=0;" edge="1" parent="1" source="l-wsGwp3f41n8e-7Gfb_-60" target="l-wsGwp3f41n8e-7Gfb_-61">
          <mxGeometry width="50" height="50" relative="1" as="geometry">
            <mxPoint x="1160" y="280" as="sourcePoint" />
            <mxPoint x="1210" y="230" as="targetPoint" />
          </mxGeometry>
        </mxCell>
        <mxCell id="l-wsGwp3f41n8e-7Gfb_-65" value="ステータス変更&lt;br&gt;作業中⇒レビュー依頼中" style="rounded=1;whiteSpace=wrap;html=1;fillColor=#dae8fc;strokeColor=#6c8ebf;" vertex="1" parent="1">
          <mxGeometry x="1215" y="480" width="120" height="60" as="geometry" />
        </mxCell>
        <mxCell id="l-wsGwp3f41n8e-7Gfb_-66" value="" style="endArrow=classic;html=1;rounded=0;entryX=0;entryY=0.5;entryDx=0;entryDy=0;exitX=1;exitY=0.5;exitDx=0;exitDy=0;" edge="1" parent="1" source="l-wsGwp3f41n8e-7Gfb_-89" target="l-wsGwp3f41n8e-7Gfb_-90">
          <mxGeometry width="50" height="50" relative="1" as="geometry">
            <mxPoint x="1165" y="290" as="sourcePoint" />
            <mxPoint x="1225" y="220" as="targetPoint" />
          </mxGeometry>
        </mxCell>
        <mxCell id="l-wsGwp3f41n8e-7Gfb_-67" value="" style="edgeStyle=elbowEdgeStyle;elbow=vertical;endArrow=classic;html=1;curved=0;rounded=0;endSize=8;startSize=8;exitX=0.5;exitY=1;exitDx=0;exitDy=0;" edge="1" parent="1" source="l-wsGwp3f41n8e-7Gfb_-61" target="l-wsGwp3f41n8e-7Gfb_-88">
          <mxGeometry width="50" height="50" relative="1" as="geometry">
            <mxPoint x="990" y="270" as="sourcePoint" />
            <mxPoint x="1105" y="260" as="targetPoint" />
            <Array as="points">
              <mxPoint x="1100" y="240" />
              <mxPoint x="1200" y="230" />
            </Array>
          </mxGeometry>
        </mxCell>
        <mxCell id="l-wsGwp3f41n8e-7Gfb_-74" value="ステータス変更&lt;br&gt;レビュー中⇒完了" style="rounded=1;whiteSpace=wrap;html=1;fillColor=#dae8fc;strokeColor=#6c8ebf;" vertex="1" parent="1">
          <mxGeometry x="1215" y="860" width="120" height="60" as="geometry" />
        </mxCell>
        <mxCell id="l-wsGwp3f41n8e-7Gfb_-78" value="SEにレビューを依頼&lt;br&gt;ステータス変更" style="rounded=1;whiteSpace=wrap;html=1;fillColor=#dae8fc;strokeColor=#6c8ebf;" vertex="1" parent="1">
          <mxGeometry x="870" y="480" width="120" height="60" as="geometry" />
        </mxCell>
        <mxCell id="l-wsGwp3f41n8e-7Gfb_-85" value="" style="endArrow=classic;html=1;rounded=0;exitX=1;exitY=0.5;exitDx=0;exitDy=0;entryX=0;entryY=0.5;entryDx=0;entryDy=0;" edge="1" parent="1" source="l-wsGwp3f41n8e-7Gfb_-78" target="l-wsGwp3f41n8e-7Gfb_-65">
          <mxGeometry width="50" height="50" relative="1" as="geometry">
            <mxPoint x="1215" y="650" as="sourcePoint" />
            <mxPoint x="1225" y="740" as="targetPoint" />
          </mxGeometry>
        </mxCell>
        <mxCell id="l-wsGwp3f41n8e-7Gfb_-86" value="" style="ellipse;html=1;shape=endState;fillColor=strokeColor;" vertex="1" parent="1">
          <mxGeometry x="1260" y="1070" width="30" height="30" as="geometry" />
        </mxCell>
        <mxCell id="l-wsGwp3f41n8e-7Gfb_-88" value="コーディング" style="rounded=1;whiteSpace=wrap;html=1;fillColor=#dae8fc;strokeColor=#6c8ebf;" vertex="1" parent="1">
          <mxGeometry x="870" y="260" width="120" height="60" as="geometry" />
        </mxCell>
        <mxCell id="l-wsGwp3f41n8e-7Gfb_-89" value="GitHubにプッシュ&lt;br&gt;（プルリク作成）" style="rounded=1;whiteSpace=wrap;html=1;fillColor=#dae8fc;strokeColor=#6c8ebf;" vertex="1" parent="1">
          <mxGeometry x="870" y="350" width="120" height="60" as="geometry" />
        </mxCell>
        <mxCell id="l-wsGwp3f41n8e-7Gfb_-90" value="自動テスト" style="rhombus;fillColor=#dae8fc;strokeColor=#6c8ebf;" vertex="1" parent="1">
          <mxGeometry x="1410" y="330" width="100" height="100" as="geometry" />
        </mxCell>
        <mxCell id="l-wsGwp3f41n8e-7Gfb_-91" value="" style="endArrow=classic;html=1;rounded=0;exitX=0.5;exitY=1;exitDx=0;exitDy=0;entryX=0.5;entryY=0;entryDx=0;entryDy=0;" edge="1" parent="1" source="l-wsGwp3f41n8e-7Gfb_-88" target="l-wsGwp3f41n8e-7Gfb_-89">
          <mxGeometry width="50" height="50" relative="1" as="geometry">
            <mxPoint x="929.86" y="330" as="sourcePoint" />
            <mxPoint x="929.86" y="350" as="targetPoint" />
          </mxGeometry>
        </mxCell>
        <mxCell id="l-wsGwp3f41n8e-7Gfb_-92" value="" style="edgeStyle=elbowEdgeStyle;elbow=vertical;endArrow=classic;html=1;curved=0;rounded=0;endSize=8;startSize=8;exitX=0.5;exitY=0;exitDx=0;exitDy=0;entryX=1;entryY=0.5;entryDx=0;entryDy=0;" edge="1" parent="1" source="l-wsGwp3f41n8e-7Gfb_-90" target="l-wsGwp3f41n8e-7Gfb_-88">
          <mxGeometry width="50" height="50" relative="1" as="geometry">
            <mxPoint x="1285" y="240" as="sourcePoint" />
            <mxPoint x="940" y="270" as="targetPoint" />
            <Array as="points">
              <mxPoint x="1250" y="290" />
              <mxPoint x="1210" y="240" />
            </Array>
          </mxGeometry>
        </mxCell>
        <mxCell id="l-wsGwp3f41n8e-7Gfb_-95" value="NG" style="edgeLabel;html=1;align=center;verticalAlign=middle;resizable=0;points=[];" vertex="1" connectable="0" parent="l-wsGwp3f41n8e-7Gfb_-92">
          <mxGeometry x="-0.9268" y="3" relative="1" as="geometry">
            <mxPoint as="offset" />
          </mxGeometry>
        </mxCell>
        <mxCell id="l-wsGwp3f41n8e-7Gfb_-93" value="" style="edgeStyle=elbowEdgeStyle;elbow=vertical;endArrow=classic;html=1;curved=0;rounded=0;endSize=8;startSize=8;exitX=0.5;exitY=1;exitDx=0;exitDy=0;entryX=0.5;entryY=0;entryDx=0;entryDy=0;" edge="1" parent="1" source="l-wsGwp3f41n8e-7Gfb_-90" target="l-wsGwp3f41n8e-7Gfb_-78">
          <mxGeometry width="50" height="50" relative="1" as="geometry">
            <mxPoint x="1470" y="340" as="sourcePoint" />
            <mxPoint x="1000" y="300" as="targetPoint" />
            <Array as="points">
              <mxPoint x="1190" y="460" />
              <mxPoint x="1220" y="250" />
            </Array>
          </mxGeometry>
        </mxCell>
        <mxCell id="l-wsGwp3f41n8e-7Gfb_-96" value="OK" style="edgeLabel;html=1;align=center;verticalAlign=middle;resizable=0;points=[];" vertex="1" connectable="0" parent="l-wsGwp3f41n8e-7Gfb_-93">
          <mxGeometry x="-0.958" relative="1" as="geometry">
            <mxPoint as="offset" />
          </mxGeometry>
        </mxCell>
        <mxCell id="l-wsGwp3f41n8e-7Gfb_-97" value="ステータス変更&lt;br&gt;作業中⇒レビュー中" style="rounded=1;whiteSpace=wrap;html=1;fillColor=#dae8fc;strokeColor=#6c8ebf;" vertex="1" parent="1">
          <mxGeometry x="1215" y="640" width="120" height="60" as="geometry" />
        </mxCell>
        <mxCell id="l-wsGwp3f41n8e-7Gfb_-98" value="レビュー着手&lt;br&gt;ステータス変更" style="rounded=1;whiteSpace=wrap;html=1;fillColor=#dae8fc;strokeColor=#6c8ebf;" vertex="1" parent="1">
          <mxGeometry x="1040" y="555" width="120" height="60" as="geometry" />
        </mxCell>
        <mxCell id="l-wsGwp3f41n8e-7Gfb_-101" value="" style="edgeStyle=elbowEdgeStyle;elbow=vertical;endArrow=classic;html=1;curved=0;rounded=0;endSize=8;startSize=8;exitX=0.5;exitY=1;exitDx=0;exitDy=0;" edge="1" parent="1" source="l-wsGwp3f41n8e-7Gfb_-65">
          <mxGeometry width="50" height="50" relative="1" as="geometry">
            <mxPoint x="1325" y="580" as="sourcePoint" />
            <mxPoint x="1160" y="590" as="targetPoint" />
            <Array as="points">
              <mxPoint x="1150" y="590" />
              <mxPoint x="1250" y="580" />
            </Array>
          </mxGeometry>
        </mxCell>
        <mxCell id="l-wsGwp3f41n8e-7Gfb_-102" value="" style="edgeStyle=elbowEdgeStyle;elbow=vertical;endArrow=classic;html=1;curved=0;rounded=0;endSize=8;startSize=8;exitX=0.5;exitY=1;exitDx=0;exitDy=0;entryX=0;entryY=0.5;entryDx=0;entryDy=0;" edge="1" parent="1" source="l-wsGwp3f41n8e-7Gfb_-98" target="l-wsGwp3f41n8e-7Gfb_-97">
          <mxGeometry width="50" height="50" relative="1" as="geometry">
            <mxPoint x="1285" y="550" as="sourcePoint" />
            <mxPoint x="1170" y="600" as="targetPoint" />
            <Array as="points">
              <mxPoint x="1150" y="670" />
              <mxPoint x="1260" y="590" />
            </Array>
          </mxGeometry>
        </mxCell>
        <mxCell id="l-wsGwp3f41n8e-7Gfb_-103" value="レビュー完了" style="rounded=1;whiteSpace=wrap;html=1;fillColor=#dae8fc;strokeColor=#6c8ebf;" vertex="1" parent="1">
          <mxGeometry x="1045" y="740" width="120" height="60" as="geometry" />
        </mxCell>
        <mxCell id="l-wsGwp3f41n8e-7Gfb_-104" value="" style="edgeStyle=elbowEdgeStyle;elbow=vertical;endArrow=classic;html=1;curved=0;rounded=0;endSize=8;startSize=8;exitX=0.5;exitY=1;exitDx=0;exitDy=0;entryX=0.5;entryY=0;entryDx=0;entryDy=0;" edge="1" parent="1" source="l-wsGwp3f41n8e-7Gfb_-97" target="l-wsGwp3f41n8e-7Gfb_-103">
          <mxGeometry width="50" height="50" relative="1" as="geometry">
            <mxPoint x="1145" y="700" as="sourcePoint" />
            <mxPoint x="1030" y="750" as="targetPoint" />
            <Array as="points">
              <mxPoint x="1110" y="720" />
              <mxPoint x="1120" y="740" />
            </Array>
          </mxGeometry>
        </mxCell>
        <mxCell id="l-wsGwp3f41n8e-7Gfb_-105" value="プルリクエスト承認" style="rounded=1;whiteSpace=wrap;html=1;fillColor=#dae8fc;strokeColor=#6c8ebf;" vertex="1" parent="1">
          <mxGeometry x="1385" y="740" width="120" height="60" as="geometry" />
        </mxCell>
        <mxCell id="l-wsGwp3f41n8e-7Gfb_-106" value="" style="endArrow=classic;html=1;rounded=0;exitX=1;exitY=0.5;exitDx=0;exitDy=0;entryX=0;entryY=0.5;entryDx=0;entryDy=0;" edge="1" parent="1" source="l-wsGwp3f41n8e-7Gfb_-103" target="l-wsGwp3f41n8e-7Gfb_-105">
          <mxGeometry width="50" height="50" relative="1" as="geometry">
            <mxPoint x="1185" y="769.58" as="sourcePoint" />
            <mxPoint x="1380" y="770" as="targetPoint" />
          </mxGeometry>
        </mxCell>
        <mxCell id="l-wsGwp3f41n8e-7Gfb_-107" value="通知を受け取る" style="rounded=1;whiteSpace=wrap;html=1;fillColor=#dae8fc;strokeColor=#6c8ebf;" vertex="1" parent="1">
          <mxGeometry x="875" y="860" width="120" height="60" as="geometry" />
        </mxCell>
        <mxCell id="l-wsGwp3f41n8e-7Gfb_-109" value="" style="edgeStyle=elbowEdgeStyle;elbow=vertical;endArrow=classic;html=1;curved=0;rounded=0;endSize=8;startSize=8;exitX=0.5;exitY=1;exitDx=0;exitDy=0;entryX=0.5;entryY=0;entryDx=0;entryDy=0;" edge="1" parent="1" source="l-wsGwp3f41n8e-7Gfb_-105" target="l-wsGwp3f41n8e-7Gfb_-107">
          <mxGeometry width="50" height="50" relative="1" as="geometry">
            <mxPoint x="1250" y="810" as="sourcePoint" />
            <mxPoint x="1080" y="850" as="targetPoint" />
            <Array as="points">
              <mxPoint x="1085" y="830" />
              <mxPoint x="1095" y="850" />
            </Array>
          </mxGeometry>
        </mxCell>
        <mxCell id="l-wsGwp3f41n8e-7Gfb_-110" value="" style="endArrow=classic;html=1;rounded=0;exitX=1;exitY=0.5;exitDx=0;exitDy=0;entryX=0;entryY=0.5;entryDx=0;entryDy=0;" edge="1" parent="1" source="l-wsGwp3f41n8e-7Gfb_-107" target="l-wsGwp3f41n8e-7Gfb_-74">
          <mxGeometry width="50" height="50" relative="1" as="geometry">
            <mxPoint x="1020" y="889.5" as="sourcePoint" />
            <mxPoint x="1245" y="889.5" as="targetPoint" />
          </mxGeometry>
        </mxCell>
        <mxCell id="l-wsGwp3f41n8e-7Gfb_-111" value="（任意のタイミング）&lt;br&gt;進捗をチェック" style="rounded=1;whiteSpace=wrap;html=1;fillColor=#dae8fc;strokeColor=#6c8ebf;" vertex="1" parent="1">
          <mxGeometry x="1045" y="970" width="120" height="60" as="geometry" />
        </mxCell>
        <mxCell id="l-wsGwp3f41n8e-7Gfb_-112" value="" style="edgeStyle=elbowEdgeStyle;elbow=vertical;endArrow=classic;html=1;curved=0;rounded=0;endSize=8;startSize=8;exitX=0.5;exitY=1;exitDx=0;exitDy=0;entryX=0.5;entryY=0;entryDx=0;entryDy=0;" edge="1" parent="1" source="l-wsGwp3f41n8e-7Gfb_-74" target="l-wsGwp3f41n8e-7Gfb_-111">
          <mxGeometry width="50" height="50" relative="1" as="geometry">
            <mxPoint x="1270" y="920" as="sourcePoint" />
            <mxPoint x="1100" y="960" as="targetPoint" />
            <Array as="points">
              <mxPoint x="1105" y="940" />
              <mxPoint x="1115" y="960" />
            </Array>
          </mxGeometry>
        </mxCell>
        <mxCell id="l-wsGwp3f41n8e-7Gfb_-113" value="マイルストーン内のタスク完了割合を%表示（個人別、全体）" style="rounded=1;whiteSpace=wrap;html=1;fillColor=#dae8fc;strokeColor=#6c8ebf;" vertex="1" parent="1">
          <mxGeometry x="1215" y="970" width="120" height="60" as="geometry" />
        </mxCell>
        <mxCell id="l-wsGwp3f41n8e-7Gfb_-114" value="" style="endArrow=classic;html=1;rounded=0;exitX=1;exitY=0.5;exitDx=0;exitDy=0;entryX=0;entryY=0.5;entryDx=0;entryDy=0;" edge="1" parent="1" source="l-wsGwp3f41n8e-7Gfb_-111" target="l-wsGwp3f41n8e-7Gfb_-113">
          <mxGeometry width="50" height="50" relative="1" as="geometry">
            <mxPoint x="1195" y="999.66" as="sourcePoint" />
            <mxPoint x="1210" y="1000" as="targetPoint" />
          </mxGeometry>
        </mxCell>
        <mxCell id="l-wsGwp3f41n8e-7Gfb_-116" value="" style="endArrow=classic;html=1;rounded=0;exitX=0.5;exitY=1;exitDx=0;exitDy=0;entryX=0.5;entryY=0;entryDx=0;entryDy=0;" edge="1" parent="1" source="l-wsGwp3f41n8e-7Gfb_-113" target="l-wsGwp3f41n8e-7Gfb_-86">
          <mxGeometry width="50" height="50" relative="1" as="geometry">
            <mxPoint x="1284.8" y="1050" as="sourcePoint" />
            <mxPoint x="1284.8" y="1080" as="targetPoint" />
          </mxGeometry>
        </mxCell>
      </root>
    </mxGraphModel>
  </diagram>
  <diagram id="6i2pwYfsQi-EJ-Kww3cp" name="ドメインモデル、オブジェクト図">
    <mxGraphModel dx="1816" dy="1712" grid="1" gridSize="10" guides="1" tooltips="1" connect="1" arrows="1" fold="1" page="1" pageScale="1" pageWidth="827" pageHeight="1169" math="0" shadow="0">
      <root>
        <mxCell id="0" />
        <mxCell id="1" parent="0" />
        <mxCell id="CthZHPDkdbeuuyzX8ArR-1" value="■ドメインモデル" style="text;html=1;strokeColor=none;fillColor=none;align=center;verticalAlign=middle;whiteSpace=wrap;rounded=0;fontSize=18;" vertex="1" parent="1">
          <mxGeometry x="20" y="10" width="150" height="30" as="geometry" />
        </mxCell>
        <mxCell id="CthZHPDkdbeuuyzX8ArR-2" value="■オブジェクト図" style="text;html=1;strokeColor=none;fillColor=none;align=center;verticalAlign=middle;whiteSpace=wrap;rounded=0;fontSize=18;" vertex="1" parent="1">
          <mxGeometry x="25" y="420" width="150" height="30" as="geometry" />
        </mxCell>
        <mxCell id="7pe0EJU1C7WuaE-iiQIb-34" style="edgeStyle=orthogonalEdgeStyle;rounded=0;orthogonalLoop=1;jettySize=auto;html=1;exitX=0.25;exitY=1;exitDx=0;exitDy=0;entryX=0.5;entryY=1;entryDx=0;entryDy=0;endArrow=none;endFill=0;startArrow=none;startFill=0;" edge="1" parent="1" source="7pe0EJU1C7WuaE-iiQIb-1" target="7pe0EJU1C7WuaE-iiQIb-19">
          <mxGeometry relative="1" as="geometry">
            <Array as="points">
              <mxPoint x="70" y="300" />
              <mxPoint x="685" y="300" />
            </Array>
          </mxGeometry>
        </mxCell>
        <mxCell id="7pe0EJU1C7WuaE-iiQIb-36" value="0..n" style="edgeLabel;html=1;align=center;verticalAlign=middle;resizable=0;points=[];" vertex="1" connectable="0" parent="7pe0EJU1C7WuaE-iiQIb-34">
          <mxGeometry x="0.9821" y="-1" relative="1" as="geometry">
            <mxPoint as="offset" />
          </mxGeometry>
        </mxCell>
        <mxCell id="7pe0EJU1C7WuaE-iiQIb-37" value="0..3" style="edgeLabel;html=1;align=center;verticalAlign=middle;resizable=0;points=[];" vertex="1" connectable="0" parent="7pe0EJU1C7WuaE-iiQIb-34">
          <mxGeometry x="-0.9761" relative="1" as="geometry">
            <mxPoint as="offset" />
          </mxGeometry>
        </mxCell>
        <mxCell id="7pe0EJU1C7WuaE-iiQIb-1" value="&lt;div style=&quot;&quot;&gt;&lt;u style=&quot;background-color: initial;&quot;&gt;プロジェクト&lt;/u&gt;&lt;/div&gt;&lt;br&gt;&lt;div style=&quot;text-align: left;&quot;&gt;&lt;span style=&quot;background-color: initial;&quot;&gt;・プロジェクト名&lt;/span&gt;&lt;/div&gt;&lt;div style=&quot;text-align: left;&quot;&gt;&lt;span style=&quot;background-color: initial;&quot;&gt;・開始日&lt;/span&gt;&lt;/div&gt;&lt;div style=&quot;text-align: left;&quot;&gt;&lt;span style=&quot;background-color: initial;&quot;&gt;・完了予定日&lt;/span&gt;&lt;/div&gt;" style="rounded=1;whiteSpace=wrap;html=1;horizontal=1;verticalAlign=top;align=center;fillColor=#ffe6cc;strokeColor=#d79b00;" vertex="1" parent="1">
          <mxGeometry x="40" y="60" width="120" height="90" as="geometry" />
        </mxCell>
        <mxCell id="7pe0EJU1C7WuaE-iiQIb-2" value="&lt;div style=&quot;&quot;&gt;&lt;u&gt;タスク&lt;/u&gt;&lt;/div&gt;&lt;div style=&quot;&quot;&gt;&lt;br&gt;&lt;/div&gt;&lt;div style=&quot;text-align: left;&quot;&gt;&lt;span style=&quot;background-color: initial;&quot;&gt;・タスク名&lt;/span&gt;&lt;/div&gt;&lt;div style=&quot;text-align: left;&quot;&gt;&lt;span style=&quot;background-color: initial;&quot;&gt;・詳細&lt;/span&gt;&lt;/div&gt;&lt;div style=&quot;text-align: left;&quot;&gt;&lt;span style=&quot;background-color: initial;&quot;&gt;・ステータス&lt;/span&gt;&lt;/div&gt;&lt;div style=&quot;text-align: left;&quot;&gt;&lt;span style=&quot;background-color: initial;&quot;&gt;・設計Doc.URL&lt;/span&gt;&lt;/div&gt;" style="rounded=1;whiteSpace=wrap;html=1;horizontal=1;verticalAlign=top;align=center;fillColor=#ffe6cc;strokeColor=#d79b00;" vertex="1" parent="1">
          <mxGeometry x="280" y="45" width="120" height="120" as="geometry" />
        </mxCell>
        <mxCell id="7pe0EJU1C7WuaE-iiQIb-4" value="" style="endArrow=none;html=1;rounded=0;entryX=0;entryY=0.5;entryDx=0;entryDy=0;exitX=1;exitY=0.5;exitDx=0;exitDy=0;" edge="1" parent="1" source="7pe0EJU1C7WuaE-iiQIb-1" target="7pe0EJU1C7WuaE-iiQIb-2">
          <mxGeometry width="50" height="50" relative="1" as="geometry">
            <mxPoint x="140" y="230" as="sourcePoint" />
            <mxPoint x="190" y="180" as="targetPoint" />
          </mxGeometry>
        </mxCell>
        <mxCell id="7pe0EJU1C7WuaE-iiQIb-5" value="1" style="edgeLabel;html=1;align=center;verticalAlign=middle;resizable=0;points=[];" vertex="1" connectable="0" parent="7pe0EJU1C7WuaE-iiQIb-4">
          <mxGeometry x="-0.7167" y="-1" relative="1" as="geometry">
            <mxPoint as="offset" />
          </mxGeometry>
        </mxCell>
        <mxCell id="7pe0EJU1C7WuaE-iiQIb-6" value="0..n" style="edgeLabel;html=1;align=center;verticalAlign=middle;resizable=0;points=[];" vertex="1" connectable="0" parent="7pe0EJU1C7WuaE-iiQIb-4">
          <mxGeometry x="0.6167" y="-1" relative="1" as="geometry">
            <mxPoint as="offset" />
          </mxGeometry>
        </mxCell>
        <mxCell id="7pe0EJU1C7WuaE-iiQIb-7" value="&lt;div style=&quot;&quot;&gt;&lt;u&gt;マイルストーン&lt;/u&gt;&lt;/div&gt;&lt;br&gt;&lt;div style=&quot;text-align: left;&quot;&gt;&lt;span style=&quot;background-color: initial;&quot;&gt;・マイルストーン名&lt;/span&gt;&lt;/div&gt;&lt;div style=&quot;text-align: left;&quot;&gt;&lt;span style=&quot;background-color: initial;&quot;&gt;・開始日&lt;/span&gt;&lt;/div&gt;&lt;div style=&quot;text-align: left;&quot;&gt;&lt;span style=&quot;background-color: initial;&quot;&gt;・完了予定日&lt;/span&gt;&lt;/div&gt;" style="rounded=1;whiteSpace=wrap;html=1;horizontal=1;verticalAlign=top;align=center;fillColor=#ffe6cc;strokeColor=#d79b00;" vertex="1" parent="1">
          <mxGeometry x="280" y="200" width="120" height="90" as="geometry" />
        </mxCell>
        <mxCell id="7pe0EJU1C7WuaE-iiQIb-9" value="" style="endArrow=none;html=1;rounded=0;entryX=0;entryY=0.5;entryDx=0;entryDy=0;exitX=0.5;exitY=1;exitDx=0;exitDy=0;" edge="1" parent="1" source="7pe0EJU1C7WuaE-iiQIb-1" target="7pe0EJU1C7WuaE-iiQIb-7">
          <mxGeometry width="50" height="50" relative="1" as="geometry">
            <mxPoint x="180" y="270" as="sourcePoint" />
            <mxPoint x="230" y="220" as="targetPoint" />
            <Array as="points">
              <mxPoint x="100" y="245" />
            </Array>
          </mxGeometry>
        </mxCell>
        <mxCell id="7pe0EJU1C7WuaE-iiQIb-10" value="1" style="edgeLabel;html=1;align=center;verticalAlign=middle;resizable=0;points=[];" vertex="1" connectable="0" parent="7pe0EJU1C7WuaE-iiQIb-9">
          <mxGeometry x="-0.9059" y="1" relative="1" as="geometry">
            <mxPoint as="offset" />
          </mxGeometry>
        </mxCell>
        <mxCell id="7pe0EJU1C7WuaE-iiQIb-11" value="1..n" style="edgeLabel;html=1;align=center;verticalAlign=middle;resizable=0;points=[];" vertex="1" connectable="0" parent="7pe0EJU1C7WuaE-iiQIb-9">
          <mxGeometry x="0.73" relative="1" as="geometry">
            <mxPoint as="offset" />
          </mxGeometry>
        </mxCell>
        <mxCell id="7pe0EJU1C7WuaE-iiQIb-12" value="" style="endArrow=none;html=1;rounded=0;entryX=0.5;entryY=1;entryDx=0;entryDy=0;exitX=0.5;exitY=0;exitDx=0;exitDy=0;" edge="1" parent="1" source="7pe0EJU1C7WuaE-iiQIb-7" target="7pe0EJU1C7WuaE-iiQIb-2">
          <mxGeometry width="50" height="50" relative="1" as="geometry">
            <mxPoint x="230" y="200" as="sourcePoint" />
            <mxPoint x="280" y="150" as="targetPoint" />
          </mxGeometry>
        </mxCell>
        <mxCell id="7pe0EJU1C7WuaE-iiQIb-13" value="0..n" style="edgeLabel;html=1;align=center;verticalAlign=middle;resizable=0;points=[];" vertex="1" connectable="0" parent="7pe0EJU1C7WuaE-iiQIb-12">
          <mxGeometry x="0.5657" y="-2" relative="1" as="geometry">
            <mxPoint as="offset" />
          </mxGeometry>
        </mxCell>
        <mxCell id="7pe0EJU1C7WuaE-iiQIb-15" value="1" style="edgeLabel;html=1;align=center;verticalAlign=middle;resizable=0;points=[];" vertex="1" connectable="0" parent="7pe0EJU1C7WuaE-iiQIb-12">
          <mxGeometry x="-0.44" relative="1" as="geometry">
            <mxPoint as="offset" />
          </mxGeometry>
        </mxCell>
        <mxCell id="7pe0EJU1C7WuaE-iiQIb-16" value="マイルストーンに紐づいていないタスクは「作業中」にできない" style="rounded=0;whiteSpace=wrap;html=1;fillColor=#f8cecc;strokeColor=#b85450;" vertex="1" parent="1">
          <mxGeometry x="450" y="30" width="186" height="60" as="geometry" />
        </mxCell>
        <mxCell id="7pe0EJU1C7WuaE-iiQIb-18" value="" style="endArrow=none;html=1;rounded=0;entryX=0;entryY=0.5;entryDx=0;entryDy=0;exitX=1;exitY=0.5;exitDx=0;exitDy=0;strokeColor=#FF3333;" edge="1" parent="1" source="7pe0EJU1C7WuaE-iiQIb-2" target="7pe0EJU1C7WuaE-iiQIb-16">
          <mxGeometry width="50" height="50" relative="1" as="geometry">
            <mxPoint x="440" y="160" as="sourcePoint" />
            <mxPoint x="490" y="110" as="targetPoint" />
          </mxGeometry>
        </mxCell>
        <mxCell id="7pe0EJU1C7WuaE-iiQIb-19" value="&lt;div style=&quot;&quot;&gt;&lt;u&gt;社員&lt;/u&gt;&lt;/div&gt;&lt;div style=&quot;&quot;&gt;&lt;br&gt;&lt;/div&gt;&lt;div style=&quot;text-align: left;&quot;&gt;&lt;span style=&quot;background-color: initial;&quot;&gt;・氏名&lt;/span&gt;&lt;/div&gt;&lt;div style=&quot;text-align: left;&quot;&gt;&lt;span style=&quot;background-color: initial;&quot;&gt;・Email&lt;/span&gt;&lt;/div&gt;&lt;div style=&quot;text-align: left;&quot;&gt;&lt;span style=&quot;background-color: initial;&quot;&gt;・Pass&lt;/span&gt;&lt;/div&gt;&lt;div style=&quot;text-align: left;&quot;&gt;&lt;span style=&quot;background-color: initial;&quot;&gt;・役割&lt;/span&gt;&lt;/div&gt;" style="rounded=1;whiteSpace=wrap;html=1;horizontal=1;verticalAlign=top;align=center;fillColor=#ffe6cc;strokeColor=#d79b00;" vertex="1" parent="1">
          <mxGeometry x="650" y="55" width="70" height="100" as="geometry" />
        </mxCell>
        <mxCell id="7pe0EJU1C7WuaE-iiQIb-20" value="・役割はSE/PG&lt;br&gt;・ログインはEmail, Pass&lt;br&gt;・Passは英数字8～16個" style="rounded=0;whiteSpace=wrap;html=1;fillColor=#f8cecc;strokeColor=#b85450;align=left;" vertex="1" parent="1">
          <mxGeometry x="800" y="20" width="152" height="60" as="geometry" />
        </mxCell>
        <mxCell id="7pe0EJU1C7WuaE-iiQIb-21" value="" style="endArrow=none;html=1;rounded=0;entryX=0;entryY=0.5;entryDx=0;entryDy=0;exitX=1;exitY=0.5;exitDx=0;exitDy=0;strokeColor=#FF3333;" edge="1" parent="1" source="7pe0EJU1C7WuaE-iiQIb-19" target="7pe0EJU1C7WuaE-iiQIb-20">
          <mxGeometry width="50" height="50" relative="1" as="geometry">
            <mxPoint x="700" y="75" as="sourcePoint" />
            <mxPoint x="843" y="60" as="targetPoint" />
          </mxGeometry>
        </mxCell>
        <mxCell id="7pe0EJU1C7WuaE-iiQIb-22" value="" style="endArrow=none;html=1;rounded=0;entryX=0;entryY=0.5;entryDx=0;entryDy=0;" edge="1" parent="1" target="7pe0EJU1C7WuaE-iiQIb-19">
          <mxGeometry width="50" height="50" relative="1" as="geometry">
            <mxPoint x="400" y="105" as="sourcePoint" />
            <mxPoint x="520" y="104.71000000000001" as="targetPoint" />
          </mxGeometry>
        </mxCell>
        <mxCell id="7pe0EJU1C7WuaE-iiQIb-23" value="0..ｎ" style="edgeLabel;html=1;align=center;verticalAlign=middle;resizable=0;points=[];" vertex="1" connectable="0" parent="7pe0EJU1C7WuaE-iiQIb-22">
          <mxGeometry x="-0.7167" y="-1" relative="1" as="geometry">
            <mxPoint x="-5" as="offset" />
          </mxGeometry>
        </mxCell>
        <mxCell id="7pe0EJU1C7WuaE-iiQIb-24" value="1" style="edgeLabel;html=1;align=center;verticalAlign=middle;resizable=0;points=[];" vertex="1" connectable="0" parent="7pe0EJU1C7WuaE-iiQIb-22">
          <mxGeometry x="0.6167" y="-1" relative="1" as="geometry">
            <mxPoint x="28" as="offset" />
          </mxGeometry>
        </mxCell>
        <mxCell id="7pe0EJU1C7WuaE-iiQIb-38" value="新人は1個だけ&lt;br&gt;⇒新人って何？（定義があいまいなので、初期リリースでは運用カバー）" style="rounded=0;whiteSpace=wrap;html=1;fillColor=#f8cecc;strokeColor=#b85450;align=left;" vertex="1" parent="1">
          <mxGeometry x="-100" y="180" width="186" height="60" as="geometry" />
        </mxCell>
        <mxCell id="7pe0EJU1C7WuaE-iiQIb-42" style="edgeStyle=orthogonalEdgeStyle;rounded=0;orthogonalLoop=1;jettySize=auto;html=1;endArrow=none;endFill=0;" edge="1" parent="1" source="7pe0EJU1C7WuaE-iiQIb-39" target="7pe0EJU1C7WuaE-iiQIb-2">
          <mxGeometry relative="1" as="geometry" />
        </mxCell>
        <mxCell id="7pe0EJU1C7WuaE-iiQIb-43" value="1" style="edgeLabel;html=1;align=center;verticalAlign=middle;resizable=0;points=[];" vertex="1" connectable="0" parent="7pe0EJU1C7WuaE-iiQIb-42">
          <mxGeometry x="0.6889" y="1" relative="1" as="geometry">
            <mxPoint x="-1" y="1" as="offset" />
          </mxGeometry>
        </mxCell>
        <mxCell id="7pe0EJU1C7WuaE-iiQIb-44" value="0..5" style="edgeLabel;html=1;align=center;verticalAlign=middle;resizable=0;points=[];" vertex="1" connectable="0" parent="7pe0EJU1C7WuaE-iiQIb-42">
          <mxGeometry x="-0.7785" y="-1" relative="1" as="geometry">
            <mxPoint as="offset" />
          </mxGeometry>
        </mxCell>
        <mxCell id="7pe0EJU1C7WuaE-iiQIb-50" style="edgeStyle=orthogonalEdgeStyle;rounded=0;orthogonalLoop=1;jettySize=auto;html=1;exitX=1;exitY=0.5;exitDx=0;exitDy=0;entryX=0;entryY=0.5;entryDx=0;entryDy=0;endArrow=none;endFill=0;" edge="1" parent="1" source="7pe0EJU1C7WuaE-iiQIb-39" target="7pe0EJU1C7WuaE-iiQIb-45">
          <mxGeometry relative="1" as="geometry" />
        </mxCell>
        <mxCell id="7pe0EJU1C7WuaE-iiQIb-51" value="1" style="edgeLabel;html=1;align=center;verticalAlign=middle;resizable=0;points=[];" vertex="1" connectable="0" parent="7pe0EJU1C7WuaE-iiQIb-50">
          <mxGeometry x="-0.7633" y="-1" relative="1" as="geometry">
            <mxPoint as="offset" />
          </mxGeometry>
        </mxCell>
        <mxCell id="7pe0EJU1C7WuaE-iiQIb-52" value="0..n" style="edgeLabel;html=1;align=center;verticalAlign=middle;resizable=0;points=[];" vertex="1" connectable="0" parent="7pe0EJU1C7WuaE-iiQIb-50">
          <mxGeometry x="0.63" y="-1" relative="1" as="geometry">
            <mxPoint as="offset" />
          </mxGeometry>
        </mxCell>
        <mxCell id="7pe0EJU1C7WuaE-iiQIb-56" style="edgeStyle=orthogonalEdgeStyle;rounded=0;orthogonalLoop=1;jettySize=auto;html=1;exitX=1;exitY=0.75;exitDx=0;exitDy=0;entryX=0.25;entryY=0;entryDx=0;entryDy=0;endArrow=none;endFill=0;" edge="1" parent="1" source="7pe0EJU1C7WuaE-iiQIb-39" target="7pe0EJU1C7WuaE-iiQIb-19">
          <mxGeometry relative="1" as="geometry">
            <Array as="points">
              <mxPoint x="450" y="-52" />
              <mxPoint x="450" y="10" />
              <mxPoint x="667" y="10" />
            </Array>
          </mxGeometry>
        </mxCell>
        <mxCell id="7pe0EJU1C7WuaE-iiQIb-57" value="1" style="edgeLabel;html=1;align=center;verticalAlign=middle;resizable=0;points=[];" vertex="1" connectable="0" parent="7pe0EJU1C7WuaE-iiQIb-56">
          <mxGeometry x="0.9192" relative="1" as="geometry">
            <mxPoint as="offset" />
          </mxGeometry>
        </mxCell>
        <mxCell id="7pe0EJU1C7WuaE-iiQIb-58" value="0..n" style="edgeLabel;html=1;align=center;verticalAlign=middle;resizable=0;points=[];" vertex="1" connectable="0" parent="7pe0EJU1C7WuaE-iiQIb-56">
          <mxGeometry x="-0.9375" y="1" relative="1" as="geometry">
            <mxPoint as="offset" />
          </mxGeometry>
        </mxCell>
        <mxCell id="7pe0EJU1C7WuaE-iiQIb-39" value="&lt;div style=&quot;&quot;&gt;&lt;u&gt;スレッド&lt;/u&gt;&lt;/div&gt;&lt;div style=&quot;&quot;&gt;&lt;br&gt;&lt;/div&gt;&lt;div style=&quot;text-align: left;&quot;&gt;&lt;span style=&quot;background-color: initial;&quot;&gt;・作成日時&lt;/span&gt;&lt;/div&gt;&lt;div style=&quot;text-align: left;&quot;&gt;&lt;span style=&quot;background-color: initial;&quot;&gt;・作成者&lt;/span&gt;&lt;/div&gt;&lt;div style=&quot;text-align: left;&quot;&gt;&lt;span style=&quot;background-color: initial;&quot;&gt;・宛先&lt;/span&gt;&lt;/div&gt;&lt;div style=&quot;text-align: left;&quot;&gt;&lt;span style=&quot;background-color: initial;&quot;&gt;・タイトル&lt;/span&gt;&lt;/div&gt;&lt;div style=&quot;text-align: left;&quot;&gt;&lt;span style=&quot;background-color: initial;&quot;&gt;・本文&lt;/span&gt;&lt;/div&gt;&lt;div style=&quot;text-align: left;&quot;&gt;&lt;span style=&quot;background-color: initial;&quot;&gt;・解決フラグ&lt;/span&gt;&lt;/div&gt;" style="rounded=1;whiteSpace=wrap;html=1;horizontal=1;verticalAlign=top;align=center;fillColor=#ffe6cc;strokeColor=#d79b00;" vertex="1" parent="1">
          <mxGeometry x="280" y="-150" width="120" height="130" as="geometry" />
        </mxCell>
        <mxCell id="7pe0EJU1C7WuaE-iiQIb-40" value="・宛先は未入力でもOK&lt;br&gt;・スレッドが多すぎる場合、タスクが悪いと判断" style="rounded=0;whiteSpace=wrap;html=1;fillColor=#f8cecc;strokeColor=#b85450;fontStyle=0;align=left;" vertex="1" parent="1">
          <mxGeometry x="430" y="-220" width="186" height="60" as="geometry" />
        </mxCell>
        <mxCell id="7pe0EJU1C7WuaE-iiQIb-41" value="" style="endArrow=none;html=1;rounded=0;entryX=0;entryY=0.5;entryDx=0;entryDy=0;exitX=1;exitY=0.5;exitDx=0;exitDy=0;strokeColor=#FF3333;" edge="1" parent="1" source="7pe0EJU1C7WuaE-iiQIb-39" target="7pe0EJU1C7WuaE-iiQIb-40">
          <mxGeometry width="50" height="50" relative="1" as="geometry">
            <mxPoint x="400" y="-45" as="sourcePoint" />
            <mxPoint x="450" y="-90" as="targetPoint" />
          </mxGeometry>
        </mxCell>
        <mxCell id="7pe0EJU1C7WuaE-iiQIb-53" style="edgeStyle=orthogonalEdgeStyle;rounded=0;orthogonalLoop=1;jettySize=auto;html=1;exitX=1;exitY=0.5;exitDx=0;exitDy=0;entryX=0.5;entryY=0;entryDx=0;entryDy=0;endArrow=none;endFill=0;" edge="1" parent="1" source="7pe0EJU1C7WuaE-iiQIb-45" target="7pe0EJU1C7WuaE-iiQIb-19">
          <mxGeometry relative="1" as="geometry" />
        </mxCell>
        <mxCell id="7pe0EJU1C7WuaE-iiQIb-54" value="0..n" style="edgeLabel;html=1;align=center;verticalAlign=middle;resizable=0;points=[];" vertex="1" connectable="0" parent="7pe0EJU1C7WuaE-iiQIb-53">
          <mxGeometry x="-0.8734" relative="1" as="geometry">
            <mxPoint as="offset" />
          </mxGeometry>
        </mxCell>
        <mxCell id="7pe0EJU1C7WuaE-iiQIb-55" value="1" style="edgeLabel;html=1;align=center;verticalAlign=middle;resizable=0;points=[];" vertex="1" connectable="0" parent="7pe0EJU1C7WuaE-iiQIb-53">
          <mxGeometry x="0.8967" y="1" relative="1" as="geometry">
            <mxPoint as="offset" />
          </mxGeometry>
        </mxCell>
        <mxCell id="7pe0EJU1C7WuaE-iiQIb-45" value="&lt;div style=&quot;&quot;&gt;&lt;u&gt;返信&lt;/u&gt;&lt;/div&gt;&lt;div style=&quot;&quot;&gt;&lt;br&gt;&lt;/div&gt;&lt;div style=&quot;text-align: left;&quot;&gt;&lt;span style=&quot;background-color: initial;&quot;&gt;・返信日時&lt;/span&gt;&lt;/div&gt;&lt;div style=&quot;text-align: left;&quot;&gt;&lt;span style=&quot;background-color: initial;&quot;&gt;・投稿者&lt;/span&gt;&lt;/div&gt;&lt;div style=&quot;text-align: left;&quot;&gt;&lt;span style=&quot;background-color: initial;&quot;&gt;・宛先&lt;/span&gt;&lt;/div&gt;&lt;div style=&quot;text-align: left;&quot;&gt;&lt;span style=&quot;background-color: initial;&quot;&gt;・本文&lt;/span&gt;&lt;/div&gt;" style="rounded=1;whiteSpace=wrap;html=1;horizontal=1;verticalAlign=top;align=center;fillColor=#ffe6cc;strokeColor=#d79b00;" vertex="1" parent="1">
          <mxGeometry x="520" y="-150" width="76" height="130" as="geometry" />
        </mxCell>
        <mxCell id="7pe0EJU1C7WuaE-iiQIb-46" value="・宛先は未入力でもOK" style="rounded=0;whiteSpace=wrap;html=1;fillColor=#f8cecc;strokeColor=#b85450;fontStyle=0;align=left;" vertex="1" parent="1">
          <mxGeometry x="630" y="-220" width="186" height="60" as="geometry" />
        </mxCell>
        <mxCell id="7pe0EJU1C7WuaE-iiQIb-47" value="" style="endArrow=none;html=1;rounded=0;entryX=0;entryY=0.5;entryDx=0;entryDy=0;exitX=1;exitY=0.5;exitDx=0;exitDy=0;strokeColor=#FF3333;" edge="1" parent="1" source="7pe0EJU1C7WuaE-iiQIb-45" target="7pe0EJU1C7WuaE-iiQIb-46">
          <mxGeometry width="50" height="50" relative="1" as="geometry">
            <mxPoint x="606" y="-65" as="sourcePoint" />
            <mxPoint x="636" y="-170" as="targetPoint" />
          </mxGeometry>
        </mxCell>
        <mxCell id="7pe0EJU1C7WuaE-iiQIb-48" value="「ステータス」は&lt;br&gt;状態遷移図に記載" style="rounded=0;whiteSpace=wrap;html=1;fillColor=#f8cecc;strokeColor=#b85450;" vertex="1" parent="1">
          <mxGeometry x="140" y="-60" width="132" height="60" as="geometry" />
        </mxCell>
        <mxCell id="7pe0EJU1C7WuaE-iiQIb-49" value="" style="endArrow=none;html=1;rounded=0;entryX=0.5;entryY=1;entryDx=0;entryDy=0;exitX=0.25;exitY=0;exitDx=0;exitDy=0;strokeColor=#FF3333;" edge="1" parent="1" source="7pe0EJU1C7WuaE-iiQIb-2" target="7pe0EJU1C7WuaE-iiQIb-48">
          <mxGeometry width="50" height="50" relative="1" as="geometry">
            <mxPoint x="410" y="115" as="sourcePoint" />
            <mxPoint x="460" y="70" as="targetPoint" />
          </mxGeometry>
        </mxCell>
        <mxCell id="7pe0EJU1C7WuaE-iiQIb-62" style="edgeStyle=orthogonalEdgeStyle;rounded=0;orthogonalLoop=1;jettySize=auto;html=1;exitX=0.5;exitY=1;exitDx=0;exitDy=0;entryX=0.5;entryY=0;entryDx=0;entryDy=0;endArrow=none;endFill=0;" edge="1" parent="1" source="7pe0EJU1C7WuaE-iiQIb-59" target="7pe0EJU1C7WuaE-iiQIb-60">
          <mxGeometry relative="1" as="geometry" />
        </mxCell>
        <mxCell id="7pe0EJU1C7WuaE-iiQIb-63" style="edgeStyle=orthogonalEdgeStyle;rounded=0;orthogonalLoop=1;jettySize=auto;html=1;endArrow=none;endFill=0;" edge="1" parent="1" source="7pe0EJU1C7WuaE-iiQIb-59" target="7pe0EJU1C7WuaE-iiQIb-61">
          <mxGeometry relative="1" as="geometry" />
        </mxCell>
        <mxCell id="7pe0EJU1C7WuaE-iiQIb-66" style="edgeStyle=orthogonalEdgeStyle;rounded=0;orthogonalLoop=1;jettySize=auto;html=1;exitX=1;exitY=0.5;exitDx=0;exitDy=0;endArrow=none;endFill=0;" edge="1" parent="1" source="7pe0EJU1C7WuaE-iiQIb-59" target="7pe0EJU1C7WuaE-iiQIb-64">
          <mxGeometry relative="1" as="geometry" />
        </mxCell>
        <mxCell id="7pe0EJU1C7WuaE-iiQIb-67" style="edgeStyle=orthogonalEdgeStyle;rounded=0;orthogonalLoop=1;jettySize=auto;html=1;exitX=1;exitY=0.5;exitDx=0;exitDy=0;entryX=0;entryY=0.5;entryDx=0;entryDy=0;endArrow=none;endFill=0;" edge="1" parent="1" source="7pe0EJU1C7WuaE-iiQIb-59" target="7pe0EJU1C7WuaE-iiQIb-65">
          <mxGeometry relative="1" as="geometry" />
        </mxCell>
        <mxCell id="7pe0EJU1C7WuaE-iiQIb-59" value="&lt;div style=&quot;&quot;&gt;&lt;u style=&quot;background-color: initial;&quot;&gt;プロジェクト&lt;/u&gt;&lt;/div&gt;&lt;br&gt;&lt;div style=&quot;text-align: left;&quot;&gt;&lt;span style=&quot;background-color: initial;&quot;&gt;・A社●●案件&lt;/span&gt;&lt;/div&gt;&lt;div style=&quot;text-align: left;&quot;&gt;&lt;span style=&quot;background-color: initial;&quot;&gt;・2023/09/01&lt;/span&gt;&lt;/div&gt;&lt;div style=&quot;text-align: left;&quot;&gt;&lt;span style=&quot;background-color: initial;&quot;&gt;・2024/08/31&lt;/span&gt;&lt;/div&gt;" style="rounded=1;whiteSpace=wrap;html=1;horizontal=1;verticalAlign=top;align=center;fillColor=#ffe6cc;strokeColor=#d79b00;" vertex="1" parent="1">
          <mxGeometry x="40" y="460" width="120" height="90" as="geometry" />
        </mxCell>
        <mxCell id="7pe0EJU1C7WuaE-iiQIb-60" value="&lt;div style=&quot;&quot;&gt;&lt;u&gt;マイルストーン&lt;/u&gt;&lt;/div&gt;&lt;br&gt;&lt;div style=&quot;text-align: left;&quot;&gt;&lt;span style=&quot;background-color: initial;&quot;&gt;・Phase1&lt;/span&gt;&lt;/div&gt;&lt;div style=&quot;text-align: left;&quot;&gt;&lt;span style=&quot;background-color: initial;&quot;&gt;・2023/09/01&lt;/span&gt;&lt;/div&gt;&lt;div style=&quot;text-align: left;&quot;&gt;&lt;span style=&quot;background-color: initial;&quot;&gt;・2023/11/30&lt;/span&gt;&lt;/div&gt;" style="rounded=1;whiteSpace=wrap;html=1;horizontal=1;verticalAlign=top;align=center;fillColor=#ffe6cc;strokeColor=#d79b00;" vertex="1" parent="1">
          <mxGeometry x="-34" y="590" width="120" height="90" as="geometry" />
        </mxCell>
        <mxCell id="7pe0EJU1C7WuaE-iiQIb-68" style="edgeStyle=orthogonalEdgeStyle;rounded=0;orthogonalLoop=1;jettySize=auto;html=1;exitX=1;exitY=0.5;exitDx=0;exitDy=0;entryX=0;entryY=0.75;entryDx=0;entryDy=0;endArrow=none;endFill=0;" edge="1" parent="1" source="7pe0EJU1C7WuaE-iiQIb-61" target="7pe0EJU1C7WuaE-iiQIb-64">
          <mxGeometry relative="1" as="geometry" />
        </mxCell>
        <mxCell id="7pe0EJU1C7WuaE-iiQIb-61" value="&lt;div style=&quot;&quot;&gt;&lt;u&gt;マイルストーン&lt;/u&gt;&lt;/div&gt;&lt;br&gt;&lt;div style=&quot;text-align: left;&quot;&gt;&lt;span style=&quot;background-color: initial;&quot;&gt;・Phase2&lt;/span&gt;&lt;/div&gt;&lt;div style=&quot;text-align: left;&quot;&gt;&lt;span style=&quot;background-color: initial;&quot;&gt;・2023/11/01&lt;/span&gt;&lt;/div&gt;&lt;div style=&quot;text-align: left;&quot;&gt;&lt;span style=&quot;background-color: initial;&quot;&gt;・2023/01/31&lt;/span&gt;&lt;/div&gt;" style="rounded=1;whiteSpace=wrap;html=1;horizontal=1;verticalAlign=top;align=center;fillColor=#ffe6cc;strokeColor=#d79b00;" vertex="1" parent="1">
          <mxGeometry x="110" y="590" width="120" height="90" as="geometry" />
        </mxCell>
        <mxCell id="7pe0EJU1C7WuaE-iiQIb-71" style="edgeStyle=orthogonalEdgeStyle;rounded=0;orthogonalLoop=1;jettySize=auto;html=1;exitX=1;exitY=0.5;exitDx=0;exitDy=0;entryX=0;entryY=0.5;entryDx=0;entryDy=0;endArrow=none;endFill=0;" edge="1" parent="1" source="7pe0EJU1C7WuaE-iiQIb-64" target="7pe0EJU1C7WuaE-iiQIb-70">
          <mxGeometry relative="1" as="geometry" />
        </mxCell>
        <mxCell id="7pe0EJU1C7WuaE-iiQIb-64" value="&lt;div style=&quot;&quot;&gt;&lt;u&gt;タスク&lt;/u&gt;&lt;/div&gt;&lt;div style=&quot;&quot;&gt;&lt;br&gt;&lt;/div&gt;&lt;div style=&quot;text-align: left;&quot;&gt;&lt;span style=&quot;background-color: initial;&quot;&gt;・●●開発&lt;/span&gt;&lt;/div&gt;&lt;div style=&quot;text-align: left;&quot;&gt;&lt;span style=&quot;background-color: initial;&quot;&gt;・～～～～&lt;/span&gt;&lt;/div&gt;&lt;div style=&quot;text-align: left;&quot;&gt;&lt;span style=&quot;background-color: initial;&quot;&gt;・作業中&lt;/span&gt;&lt;/div&gt;&lt;div style=&quot;text-align: left;&quot;&gt;&lt;span style=&quot;background-color: initial;&quot;&gt;・https://~~&lt;/span&gt;&lt;/div&gt;" style="rounded=1;whiteSpace=wrap;html=1;horizontal=1;verticalAlign=top;align=center;fillColor=#ffe6cc;strokeColor=#d79b00;" vertex="1" parent="1">
          <mxGeometry x="280" y="360" width="120" height="120" as="geometry" />
        </mxCell>
        <mxCell id="7pe0EJU1C7WuaE-iiQIb-72" style="edgeStyle=orthogonalEdgeStyle;rounded=0;orthogonalLoop=1;jettySize=auto;html=1;exitX=1;exitY=0.5;exitDx=0;exitDy=0;entryX=0;entryY=0.5;entryDx=0;entryDy=0;endArrow=none;endFill=0;" edge="1" parent="1" source="7pe0EJU1C7WuaE-iiQIb-65" target="7pe0EJU1C7WuaE-iiQIb-70">
          <mxGeometry relative="1" as="geometry" />
        </mxCell>
        <mxCell id="7pe0EJU1C7WuaE-iiQIb-77" style="edgeStyle=orthogonalEdgeStyle;rounded=0;orthogonalLoop=1;jettySize=auto;html=1;exitX=0.5;exitY=1;exitDx=0;exitDy=0;entryX=0.5;entryY=0;entryDx=0;entryDy=0;endArrow=none;endFill=0;" edge="1" parent="1" source="7pe0EJU1C7WuaE-iiQIb-65" target="7pe0EJU1C7WuaE-iiQIb-74">
          <mxGeometry relative="1" as="geometry" />
        </mxCell>
        <mxCell id="7pe0EJU1C7WuaE-iiQIb-65" value="&lt;div style=&quot;&quot;&gt;&lt;u&gt;タスク&lt;/u&gt;&lt;/div&gt;&lt;div style=&quot;&quot;&gt;&lt;br&gt;&lt;/div&gt;&lt;div style=&quot;text-align: left;&quot;&gt;&lt;span style=&quot;background-color: initial;&quot;&gt;・▲▲開発&lt;/span&gt;&lt;/div&gt;&lt;div style=&quot;text-align: left;&quot;&gt;&lt;span style=&quot;background-color: initial;&quot;&gt;・～～～～&lt;/span&gt;&lt;/div&gt;&lt;div style=&quot;text-align: left;&quot;&gt;&lt;span style=&quot;background-color: initial;&quot;&gt;・未着手&lt;/span&gt;&lt;/div&gt;&lt;div style=&quot;text-align: left;&quot;&gt;&lt;span style=&quot;background-color: initial;&quot;&gt;・https://~~&lt;/span&gt;&lt;/div&gt;" style="rounded=1;whiteSpace=wrap;html=1;horizontal=1;verticalAlign=top;align=center;fillColor=#ffe6cc;strokeColor=#d79b00;" vertex="1" parent="1">
          <mxGeometry x="280" y="490" width="120" height="120" as="geometry" />
        </mxCell>
        <mxCell id="7pe0EJU1C7WuaE-iiQIb-83" style="edgeStyle=orthogonalEdgeStyle;rounded=0;orthogonalLoop=1;jettySize=auto;html=1;exitX=0.75;exitY=1;exitDx=0;exitDy=0;entryX=0.5;entryY=0;entryDx=0;entryDy=0;endArrow=none;endFill=0;" edge="1" parent="1" source="7pe0EJU1C7WuaE-iiQIb-70" target="7pe0EJU1C7WuaE-iiQIb-75">
          <mxGeometry relative="1" as="geometry" />
        </mxCell>
        <mxCell id="7pe0EJU1C7WuaE-iiQIb-86" style="edgeStyle=orthogonalEdgeStyle;rounded=0;orthogonalLoop=1;jettySize=auto;html=1;exitX=0.75;exitY=1;exitDx=0;exitDy=0;entryX=1;entryY=0.5;entryDx=0;entryDy=0;endArrow=none;endFill=0;" edge="1" parent="1" source="7pe0EJU1C7WuaE-iiQIb-70" target="7pe0EJU1C7WuaE-iiQIb-85">
          <mxGeometry relative="1" as="geometry">
            <Array as="points">
              <mxPoint x="539" y="590" />
              <mxPoint x="640" y="590" />
              <mxPoint x="640" y="895" />
            </Array>
          </mxGeometry>
        </mxCell>
        <mxCell id="7pe0EJU1C7WuaE-iiQIb-70" value="&lt;div style=&quot;&quot;&gt;&lt;u&gt;社員&lt;/u&gt;&lt;/div&gt;&lt;div style=&quot;&quot;&gt;&lt;br&gt;&lt;/div&gt;&lt;div style=&quot;text-align: left;&quot;&gt;&lt;span style=&quot;background-color: initial;&quot;&gt;・田中 太郎&lt;/span&gt;&lt;/div&gt;&lt;div style=&quot;text-align: left;&quot;&gt;&lt;span style=&quot;background-color: initial;&quot;&gt;・tanaka@~~&lt;/span&gt;&lt;/div&gt;&lt;div style=&quot;text-align: left;&quot;&gt;&lt;span style=&quot;background-color: initial;&quot;&gt;・passhuga&lt;/span&gt;&lt;/div&gt;&lt;div style=&quot;text-align: left;&quot;&gt;&lt;span style=&quot;background-color: initial;&quot;&gt;・PG&lt;/span&gt;&lt;/div&gt;" style="rounded=1;whiteSpace=wrap;html=1;horizontal=1;verticalAlign=top;align=center;fillColor=#ffe6cc;strokeColor=#d79b00;" vertex="1" parent="1">
          <mxGeometry x="470" y="440" width="92" height="100" as="geometry" />
        </mxCell>
        <mxCell id="7pe0EJU1C7WuaE-iiQIb-80" style="edgeStyle=orthogonalEdgeStyle;rounded=0;orthogonalLoop=1;jettySize=auto;html=1;exitX=1;exitY=0.5;exitDx=0;exitDy=0;entryX=0.5;entryY=1;entryDx=0;entryDy=0;endArrow=none;endFill=0;" edge="1" parent="1" source="7pe0EJU1C7WuaE-iiQIb-74" target="7pe0EJU1C7WuaE-iiQIb-70">
          <mxGeometry relative="1" as="geometry">
            <Array as="points">
              <mxPoint x="470" y="755" />
              <mxPoint x="470" y="610" />
              <mxPoint x="516" y="610" />
            </Array>
          </mxGeometry>
        </mxCell>
        <mxCell id="7pe0EJU1C7WuaE-iiQIb-81" style="edgeStyle=orthogonalEdgeStyle;rounded=0;orthogonalLoop=1;jettySize=auto;html=1;exitX=1;exitY=0.75;exitDx=0;exitDy=0;entryX=0;entryY=0.75;entryDx=0;entryDy=0;endArrow=none;endFill=0;" edge="1" parent="1" source="7pe0EJU1C7WuaE-iiQIb-74" target="7pe0EJU1C7WuaE-iiQIb-75">
          <mxGeometry relative="1" as="geometry" />
        </mxCell>
        <mxCell id="7pe0EJU1C7WuaE-iiQIb-74" value="&lt;div style=&quot;&quot;&gt;&lt;u&gt;スレッド&lt;/u&gt;&lt;/div&gt;&lt;div style=&quot;&quot;&gt;&lt;br&gt;&lt;/div&gt;&lt;div style=&quot;text-align: left;&quot;&gt;&lt;span style=&quot;background-color: initial;&quot;&gt;・2023/10/01 09:30&lt;/span&gt;&lt;/div&gt;&lt;div style=&quot;text-align: left;&quot;&gt;&lt;span style=&quot;background-color: initial;&quot;&gt;・from:田中&lt;/span&gt;&lt;/div&gt;&lt;div style=&quot;text-align: left;&quot;&gt;&lt;span style=&quot;background-color: initial;&quot;&gt;・to:佐藤&lt;/span&gt;&lt;/div&gt;&lt;div style=&quot;text-align: left;&quot;&gt;&lt;span style=&quot;background-color: initial;&quot;&gt;・～～を確認&lt;/span&gt;&lt;/div&gt;&lt;div style=&quot;text-align: left;&quot;&gt;&lt;span style=&quot;background-color: initial;&quot;&gt;・●●で良いですか？&lt;/span&gt;&lt;/div&gt;&lt;div style=&quot;text-align: left;&quot;&gt;&lt;span style=&quot;background-color: initial;&quot;&gt;・フラグ:False&lt;/span&gt;&lt;/div&gt;" style="rounded=1;whiteSpace=wrap;html=1;horizontal=1;verticalAlign=top;align=center;fillColor=#ffe6cc;strokeColor=#d79b00;" vertex="1" parent="1">
          <mxGeometry x="280" y="690" width="120" height="130" as="geometry" />
        </mxCell>
        <mxCell id="7pe0EJU1C7WuaE-iiQIb-90" style="edgeStyle=orthogonalEdgeStyle;rounded=0;orthogonalLoop=1;jettySize=auto;html=1;exitX=0;exitY=0.75;exitDx=0;exitDy=0;entryX=1;entryY=0.5;entryDx=0;entryDy=0;endArrow=none;endFill=0;" edge="1" parent="1" source="7pe0EJU1C7WuaE-iiQIb-75" target="7pe0EJU1C7WuaE-iiQIb-84">
          <mxGeometry relative="1" as="geometry">
            <Array as="points">
              <mxPoint x="500" y="788" />
              <mxPoint x="500" y="830" />
              <mxPoint x="475" y="830" />
              <mxPoint x="475" y="895" />
            </Array>
          </mxGeometry>
        </mxCell>
        <mxCell id="7pe0EJU1C7WuaE-iiQIb-75" value="&lt;div style=&quot;&quot;&gt;&lt;u&gt;返信&lt;/u&gt;&lt;/div&gt;&lt;div style=&quot;&quot;&gt;&lt;br&gt;&lt;/div&gt;&lt;div style=&quot;text-align: left;&quot;&gt;&lt;span style=&quot;background-color: initial;&quot;&gt;・2023/10/01 10:15&lt;/span&gt;&lt;/div&gt;&lt;div style=&quot;text-align: left;&quot;&gt;&lt;span style=&quot;background-color: initial;&quot;&gt;・from:佐藤&lt;/span&gt;&lt;/div&gt;&lt;div style=&quot;text-align: left;&quot;&gt;&lt;span style=&quot;background-color: initial;&quot;&gt;・to:田中&lt;/span&gt;&lt;/div&gt;&lt;div style=&quot;text-align: left;&quot;&gt;&lt;span style=&quot;background-color: initial;&quot;&gt;・●●は検討しましたか？&lt;/span&gt;&lt;/div&gt;" style="rounded=1;whiteSpace=wrap;html=1;horizontal=1;verticalAlign=top;align=center;fillColor=#ffe6cc;strokeColor=#d79b00;" vertex="1" parent="1">
          <mxGeometry x="520" y="690" width="110" height="130" as="geometry" />
        </mxCell>
        <mxCell id="7pe0EJU1C7WuaE-iiQIb-69" value="未着手ならマイルストーン不要" style="rounded=0;whiteSpace=wrap;html=1;fillColor=#f8cecc;strokeColor=#b85450;" vertex="1" parent="1">
          <mxGeometry x="291" y="590" width="98" height="40" as="geometry" />
        </mxCell>
        <mxCell id="7pe0EJU1C7WuaE-iiQIb-73" value="タスクの割り当ては、PJ参加スタッフからプルダウン選択" style="rounded=0;whiteSpace=wrap;html=1;fillColor=#f8cecc;strokeColor=#b85450;" vertex="1" parent="1">
          <mxGeometry x="550" y="510" width="170" height="40" as="geometry" />
        </mxCell>
        <mxCell id="7pe0EJU1C7WuaE-iiQIb-87" style="edgeStyle=orthogonalEdgeStyle;rounded=0;orthogonalLoop=1;jettySize=auto;html=1;exitX=1;exitY=0.5;exitDx=0;exitDy=0;endArrow=none;endFill=0;" edge="1" parent="1" source="7pe0EJU1C7WuaE-iiQIb-84" target="7pe0EJU1C7WuaE-iiQIb-85">
          <mxGeometry relative="1" as="geometry" />
        </mxCell>
        <mxCell id="7pe0EJU1C7WuaE-iiQIb-88" style="edgeStyle=orthogonalEdgeStyle;rounded=0;orthogonalLoop=1;jettySize=auto;html=1;exitX=0;exitY=0.5;exitDx=0;exitDy=0;endArrow=none;endFill=0;" edge="1" parent="1" source="7pe0EJU1C7WuaE-iiQIb-84">
          <mxGeometry relative="1" as="geometry">
            <mxPoint x="310" y="820" as="targetPoint" />
          </mxGeometry>
        </mxCell>
        <mxCell id="7pe0EJU1C7WuaE-iiQIb-84" value="&lt;div style=&quot;&quot;&gt;&lt;u&gt;社員&lt;/u&gt;&lt;/div&gt;&lt;div style=&quot;&quot;&gt;&lt;br&gt;&lt;/div&gt;&lt;div style=&quot;text-align: left;&quot;&gt;&lt;span style=&quot;background-color: initial;&quot;&gt;・佐藤 次郎&lt;/span&gt;&lt;/div&gt;&lt;div style=&quot;text-align: left;&quot;&gt;&lt;span style=&quot;background-color: initial;&quot;&gt;・sato@~~&lt;/span&gt;&lt;/div&gt;&lt;div style=&quot;text-align: left;&quot;&gt;&lt;span style=&quot;background-color: initial;&quot;&gt;・passhuga&lt;/span&gt;&lt;/div&gt;&lt;div style=&quot;text-align: left;&quot;&gt;&lt;span style=&quot;background-color: initial;&quot;&gt;・SE&lt;/span&gt;&lt;/div&gt;" style="rounded=1;whiteSpace=wrap;html=1;horizontal=1;verticalAlign=top;align=center;fillColor=#ffe6cc;strokeColor=#d79b00;" vertex="1" parent="1">
          <mxGeometry x="338" y="845" width="92" height="100" as="geometry" />
        </mxCell>
        <mxCell id="7pe0EJU1C7WuaE-iiQIb-91" style="edgeStyle=orthogonalEdgeStyle;rounded=0;orthogonalLoop=1;jettySize=auto;html=1;exitX=0;exitY=0.25;exitDx=0;exitDy=0;entryX=1;entryY=0.75;entryDx=0;entryDy=0;endArrow=none;endFill=0;" edge="1" parent="1" source="7pe0EJU1C7WuaE-iiQIb-85" target="7pe0EJU1C7WuaE-iiQIb-74">
          <mxGeometry relative="1" as="geometry" />
        </mxCell>
        <mxCell id="7pe0EJU1C7WuaE-iiQIb-85" value="&lt;div style=&quot;&quot;&gt;&lt;u&gt;返信&lt;/u&gt;&lt;/div&gt;&lt;div style=&quot;&quot;&gt;&lt;br&gt;&lt;/div&gt;&lt;div style=&quot;text-align: left;&quot;&gt;&lt;span style=&quot;background-color: initial;&quot;&gt;・2023/10/01 08:00&lt;/span&gt;&lt;/div&gt;&lt;div style=&quot;text-align: left;&quot;&gt;&lt;span style=&quot;background-color: initial;&quot;&gt;・from:田中&lt;/span&gt;&lt;/div&gt;&lt;div style=&quot;text-align: left;&quot;&gt;&lt;span style=&quot;background-color: initial;&quot;&gt;・to:佐藤&lt;/span&gt;&lt;/div&gt;&lt;div style=&quot;text-align: left;&quot;&gt;&lt;span style=&quot;background-color: initial;&quot;&gt;・～～で考えています&lt;/span&gt;&lt;/div&gt;" style="rounded=1;whiteSpace=wrap;html=1;horizontal=1;verticalAlign=top;align=center;fillColor=#ffe6cc;strokeColor=#d79b00;" vertex="1" parent="1">
          <mxGeometry x="520" y="830" width="110" height="130" as="geometry" />
        </mxCell>
      </root>
    </mxGraphModel>
  </diagram>
</mxfile>
